<?xml version="1.0" encoding="UTF-8" standalone="no"?>
<svg
   width="8760.5732"
   height="8919.5537"
   viewBox="0 0 8760.5732 8919.5537"
   version="1.1"
   xml:space="preserve"
   style="clip-rule:evenodd;fill-rule:evenodd;stroke-linejoin:round;stroke-miterlimit:2"
   id="svg19"
   sodipodi:docname="haeksen_logo_jadip_circle_black.svg"
   inkscape:version="1.1 (c68e22c387, 2021-05-23)"
   xmlns:inkscape="http://www.inkscape.org/namespaces/inkscape"
   xmlns:sodipodi="http://sodipodi.sourceforge.net/DTD/sodipodi-0.dtd"
   xmlns="http://www.w3.org/2000/svg"
   xmlns:svg="http://www.w3.org/2000/svg"
   xmlns:serif="http://www.serif.com/"><sodipodi:namedview
   id="namedview21"
   pagecolor="#ffffff"
   bordercolor="#666666"
   borderopacity="1.0"
   inkscape:pageshadow="2"
   inkscape:pageopacity="0.0"
   inkscape:pagecheckerboard="0"
   showgrid="false"
   fit-margin-top="0"
   fit-margin-left="0"
   fit-margin-right="0"
   fit-margin-bottom="0"
   inkscape:zoom="0.15255315"
   inkscape:cx="4293.5854"
   inkscape:cy="4935.9845"
   inkscape:window-width="3840"
   inkscape:window-height="2085"
   inkscape:window-x="-9"
   inkscape:window-y="-9"
   inkscape:window-maximized="1"
   inkscape:current-layer="svg19" />
    <ellipse
   style="fill:#000000;fill-opacity:1;stroke:#ffffff;stroke-width:4.43426;stroke-linecap:square;paint-order:fill markers stroke"
   id="path2061"
   cx="4396.7129"
   cy="4444.748"
   rx="4378.0645"
   ry="4457.5649"
   transform="matrix(0.99999413,0.00342513,-0.00368976,0.99999319,0,0)" />
    <path
   id="orange"
   d="m 1780.4691,5609.0723 -66.24,-5.49 c 11.16,23.29 19.27,45.14 19.27,45.14 l 46.58,-0.02 c -0.2,-6.2 -0.27,-12.43 -0.22,-18.7 0.05,-7.02 0.25,-14.01 0.61,-20.93 z m 1647.21,-56.88 -694.93,57.65 c 0.44,9.02 0.63,18.12 0.56,27.28 -0.02,3.76 -0.1,7.51 -0.21,11.23 l 687.06,-0.25 c 5.13,-26.33 8.4,-52.43 8.57,-77.24 0.04,-6.69 -0.33,-12.89 -1.05,-18.67 z m 517.52,-42.93 -278.07,23.07 c 7.65,35.16 14.61,74.78 19.66,115.67 l 225.79,-0.09 c 12.4,-45.9 23.62,-92.41 32.62,-138.65 z m 676.61,-56.13 c 8.98,63.7 16.33,129.18 21.3,194.52 l 219.65,-0.09 c 19.85,-62.55 49.15,-144.29 56.86,-219.14 z m 1293.1,-107.27 c 7.54,102.92 9.73,205.36 4.31,301.31 l 391.32,-0.14 v -333.99 z m -1980.97,-175.93 c 20.66,34.23 33.66,79.79 33.25,141.02 -0.25,37.72 -3.3,76.6 -8.48,116.04 l -309.38,35.3 c -7.75,-25.81 -15.29,-45.24 -21.55,-55.41 -62.78,-101.95 -185.33,-31.99 -282.44,31.59 -67.64,44.28 -0.12,22.69 46.75,53.17 l -663.33,75.68 c -2.33,-16.67 -5.51,-33.08 -9.51,-49.14 z m -2139.4,345.83 -139.07,-39.85 c 11.56,26.8 23.5,53.38 35.83,79.75 l 93.27,10.63 c 2.42,-17.15 5.76,-34.02 9.97,-50.53 z m 2074.32,-410.77 c -120.01,-74.11 -286.98,-21.41 -115.55,-133.64 249.09,-163.09 563.46,-342.56 724.49,-81.03 2.94,4.77 5.99,10.33 9.13,16.65 l 557.83,-178.72 c -132.85,-75.92 -308.4,-21.69 -121.11,-144.31 277.3,-181.56 627.28,-381.35 806.55,-90.21 2.32,3.77 4.7,7.98 7.14,12.62 l 1130.25,-362.12 c -91.28,-274.31 -155.93,-537.89 -201.31,-762.95 l -3978.18,2049.49 c 7.1,15.06 13.44,30.56 18.96,46.45 z m -2042.06,322.12 -239.01,-122.98 c 13.75,38.46 28.3,76.57 43.61,114.29 l 175.62,56.22 c 5.75,-16.27 12.37,-32.13 19.78,-47.53 z m 3967.86,-2586.84 -3154.18,2510.71 c 9.94,13.47 19.18,27.48 27.67,41.97 l 3963,-2198.99 c -51.45,-296.62 -65.21,-490.43 -65.21,-490.43 -334.79,474.4 -860.98,988.39 -860.98,988.39 -13.87,-317.1 28.76,-608.03 89.7,-851.65 z m -3918.76,2506.39 -364.12,-289.26 c 15.29,58.87 32.39,117.04 51.22,174.43 l 284.17,157.47 c 8.82,-14.75 18.42,-28.98 28.73,-42.64 z m 3259.73,-521.24 c 16.58,35.33 26.51,79.93 26.14,136.59 -0.6,88.86 -15.15,183.49 -36.54,277.85 -1.61,-3.41 -3.17,-6.34 -4.65,-8.75 -62.77,-101.95 -185.33,-31.98 -282.43,31.59 -70.85,46.39 6.57,20.51 53.25,57.87 l -285.25,32.55 c -23.96,-139.38 -54.42,-264.25 -82.87,-352.15 z m -527.2,-1944.66 -2030.21,2401.02 c 12.41,11.36 24.21,23.35 35.35,35.93 l 3269.53,-2771.6 c 96.84,-274.77 196.46,-440.4 196.46,-440.4 -423.85,209.91 -1021.82,530.62 -1471.13,775.05 z m -2668.68,2396.7 -498.52,-587.83 c 11.64,92.58 27.62,183.81 47.73,273.48 l 414.33,350.48 c 11.49,-12.68 23.67,-24.74 36.46,-36.13 z m 2545.99,-3634.3 -1982.11,3582.67 c 14.45,8.77 28.38,18.29 41.75,28.49 l 1747.7,-2201.26 c -190.53,104.54 -311.96,171.97 -311.96,171.97 621.63,-1388.86 1170.29,-1544.19 1170.29,-1544.19 -221.84,11.51 -446.84,-4.39 -665.67,-37.68 z m -2512.7,3607.22 c 13.71,-10.16 27.98,-19.61 42.75,-28.28 l -472.19,-849.66 c -117.75,-25.87 -125.24,-190.24 -125.24,-49.53 0,82.05 3.39,163.32 10.05,243.64 z m 3814.61,-611.89 1138.75,-326.47 c 18.26,49.49 37.39,99.07 57.44,148.64 0,0 33.6,-68.95 82.93,-188.89 l 183.11,-52.49 c 1.2,34.35 1.81,68.92 1.81,103.63 0,115.65 -6.75,229.73 -19.87,341.9 -70.79,-87.16 -232.21,-168.3 -332.24,-194.28 1.13,-60.06 -16.03,-63.31 -32.07,-6.7 -137.35,-19.8 -474.19,63.21 -423.63,204.55 46.32,-13.32 110.1,-36.84 183.21,3.1 13.44,7.34 69.78,-23.83 85.85,-24.1 54.27,-0.91 67.81,28.72 115.57,43.8 -18.38,122.84 -40.63,278.95 -59.7,414.7 h -144.02 c 0.01,-51.2 0.01,-108.54 -0.02,-134.31 -0.04,-27.73 -36.93,-36.75 -36.52,-87.45 0.08,-9.8 -26.66,-5.35 -26.93,-1.05 -3.51,55.04 -34.26,71.48 -34.35,88.5 -0.14,26.04 -0.15,83.24 -0.11,134.31 h -29.47 c 0.01,-46.08 0,-93.52 -0.03,-116.3 -0.03,-27.72 -36.92,-36.74 -36.51,-87.44 0.07,-9.8 -26.66,-5.36 -26.93,-1.06 -3.52,55.04 -34.26,71.48 -34.35,88.5 -0.13,23.02 -0.15,70.36 -0.12,116.3 h -88.91 v 52.77 l -409.05,46.67 c -25.63,-219.44 -71.14,-428.36 -113.84,-566.83 z m -2044.17,-3171.913 c -50.14,10.382 -99.77,22.053 -148.88,34.973 l -1175.18,3683.84 c 15.96,5.81 31.53,12.45 46.65,19.86 l 1845.08,-3592.44 c -32.49,-6.33 -64.81,-13 -96.91,-19.98 -27.59,24.13 -53.85,45.8 -74.68,56.93 -103.07,55.1 -250.9,64.37 -291.95,-20.15 -19.88,-40.91 -7.38,-91.64 5.04,-129.65 -36.97,-10.9 -73.37,-22.046 -109.17,-33.383 z m -1642.34,3716.203 -554.25,-1723.9 c -9.16,26.35 -15.43,44.41 -15.43,44.41 0,0 -33.54,181.41 -61.61,275.93 -37.75,127.09 358.17,500.33 153.94,589.78 l 429.95,833.07 c 15.38,-7.25 31.2,-13.7 47.4,-19.29 z m 277.38,-10.2 1031.76,-3615.9 -0.38,0.13 c -43.05,14.49 -85.77,29.95 -128.09,46.44 -80.33,31.28 -159.24,66.16 -236.45,104.49 -79.5,39.46 -157.17,82.57 -232.73,129.13 -38.96,24.01 -77.33,48.94 -115.13,74.73 l -2.14,1.47 -366.61,3249.19 c 16.9,2.57 33.5,6.03 49.77,10.32 z m -186.06,-11.48 -282.99,-2453.68 c -123.08,183.82 -226.04,382.2 -305.82,591.92 l 538.64,1871.29 c 16.39,-4.04 33.14,-7.23 50.17,-9.53 z m 93.66,-3.38 255.9,-3132.27 -1.68,1.32 c -32.69,25.69 -64.85,52.03 -96.43,79.06 -63.13,54.04 -123.97,110.74 -182.32,169.9 -58.37,59.19 -114.24,120.84 -167.43,184.72 -26.62,31.98 -52.54,64.53 -77.81,97.59 l -0.03,0.04 218.86,2599.21 c 8.28,-0.37 16.6,-0.52 24.96,-0.46 v 0 c 8.71,0.07 17.37,0.37 25.98,0.89 z m 4585.9,-458.69 c -16.9,119.46 -39.22,269.83 -59.15,402.31 l 82.52,-9.42 v -56.65 h 268.53 c 21.19,-84.28 38.7,-170.01 52.36,-256.99 -32.99,-22.36 -75.34,-44.15 -133.53,-30.13 -13.08,3.16 -80.84,-50.17 -94.38,-55.27 -58.2,-21.93 -59.74,9.35 -116.35,6.15 z m 343.94,-833.56 c -21.89,67.17 -43.72,130.05 -64.74,187.89 l 85.51,-27.4 c -5.47,-53.95 -12.41,-107.47 -20.77,-160.49 z"
   style="fill:#ffffff;fill-opacity:1" />
    <path
   id="orange-gradient"
   serif:id="orange gradient"
   d="m 1780.4691,5609.0723 -66.24,-5.49 c 11.16,23.29 19.27,45.14 19.27,45.14 l 46.58,-0.02 c -0.2,-6.2 -0.27,-12.43 -0.22,-18.7 0.05,-7.02 0.25,-14.01 0.61,-20.93 z m 1647.21,-56.88 -694.93,57.65 c 0.44,9.02 0.63,18.12 0.56,27.28 -0.02,3.76 -0.1,7.51 -0.21,11.23 l 687.06,-0.25 c 5.13,-26.33 8.4,-52.43 8.57,-77.24 0.04,-6.69 -0.33,-12.89 -1.05,-18.67 z m 517.52,-42.93 -278.07,23.07 c 7.65,35.16 14.61,74.78 19.66,115.67 l 225.79,-0.09 c 12.4,-45.9 23.62,-92.41 32.62,-138.65 z m 676.61,-56.13 c 8.98,63.7 16.33,129.18 21.3,194.52 l 219.65,-0.09 c 19.85,-62.55 49.15,-144.29 56.86,-219.14 z m 1293.1,-107.27 c 7.54,102.92 9.73,205.36 4.31,301.31 l 391.32,-0.14 v -333.99 z m -1980.97,-175.93 c 20.66,34.23 33.66,79.79 33.25,141.02 -0.25,37.72 -3.3,76.6 -8.48,116.04 l -309.38,35.3 c -7.75,-25.81 -15.29,-45.24 -21.55,-55.41 -62.78,-101.95 -185.33,-31.99 -282.44,31.59 -67.64,44.28 -0.12,22.69 46.75,53.17 l -663.33,75.68 c -2.33,-16.67 -5.51,-33.08 -9.51,-49.14 z m -2139.4,345.83 -139.07,-39.85 c 11.56,26.8 23.5,53.38 35.83,79.75 l 93.27,10.63 c 2.42,-17.15 5.76,-34.02 9.97,-50.53 z m 2074.32,-410.77 c -120.01,-74.11 -286.98,-21.41 -115.55,-133.64 249.09,-163.09 563.46,-342.56 724.49,-81.03 2.94,4.77 5.99,10.33 9.13,16.65 l 557.83,-178.72 c -132.85,-75.92 -308.4,-21.69 -121.11,-144.31 277.3,-181.56 627.28,-381.35 806.55,-90.21 2.32,3.77 4.7,7.98 7.14,12.62 l 1130.25,-362.12 c -91.28,-274.31 -155.93,-537.89 -201.31,-762.95 l -3978.18,2049.49 c 7.1,15.06 13.44,30.56 18.96,46.45 z m -2042.06,322.12 -239.01,-122.98 c 13.75,38.46 28.3,76.57 43.61,114.29 l 175.62,56.22 c 5.75,-16.27 12.37,-32.13 19.78,-47.53 z m 3967.86,-2586.84 -3154.18,2510.71 c 9.94,13.47 19.18,27.48 27.67,41.97 l 3963,-2198.99 c -51.45,-296.62 -65.21,-490.43 -65.21,-490.43 -334.79,474.4 -860.98,988.39 -860.98,988.39 -13.87,-317.1 28.76,-608.03 89.7,-851.65 z m -3918.76,2506.39 -364.12,-289.26 c 15.29,58.87 32.39,117.04 51.22,174.43 l 284.17,157.47 c 8.82,-14.75 18.42,-28.98 28.73,-42.64 z m 3259.73,-521.24 c 16.58,35.33 26.51,79.93 26.14,136.59 -0.6,88.86 -15.15,183.49 -36.54,277.85 -1.61,-3.41 -3.17,-6.34 -4.65,-8.75 -62.77,-101.95 -185.33,-31.98 -282.43,31.59 -70.85,46.39 6.57,20.51 53.25,57.87 l -285.25,32.55 c -23.96,-139.38 -54.42,-264.25 -82.87,-352.15 z m -527.2,-1944.66 -2030.21,2401.02 c 12.41,11.36 24.21,23.35 35.35,35.93 l 3269.53,-2771.6 c 96.84,-274.77 196.46,-440.4 196.46,-440.4 -423.85,209.91 -1021.82,530.62 -1471.13,775.05 z m -2668.68,2396.7 -498.52,-587.83 c 11.64,92.58 27.62,183.81 47.73,273.48 l 414.33,350.48 c 11.49,-12.68 23.67,-24.74 36.46,-36.13 z m 2545.99,-3634.3 -1982.11,3582.67 c 14.45,8.77 28.38,18.29 41.75,28.49 l 1747.7,-2201.26 c -190.53,104.54 -311.96,171.97 -311.96,171.97 621.63,-1388.86 1170.29,-1544.19 1170.29,-1544.19 -221.84,11.51 -446.84,-4.39 -665.67,-37.68 z m -2512.7,3607.22 c 13.71,-10.16 27.98,-19.61 42.75,-28.28 l -472.19,-849.66 c -117.75,-25.87 -125.24,-190.24 -125.24,-49.53 0,82.05 3.39,163.32 10.05,243.64 z m 3814.61,-611.89 1138.75,-326.47 c 18.26,49.49 37.39,99.07 57.44,148.64 0,0 33.6,-68.95 82.93,-188.89 l 183.11,-52.49 c 1.2,34.35 1.81,68.92 1.81,103.63 0,115.65 -6.75,229.73 -19.87,341.9 -70.79,-87.16 -232.21,-168.3 -332.24,-194.28 1.13,-60.06 -16.03,-63.31 -32.07,-6.7 -137.35,-19.8 -474.19,63.21 -423.63,204.55 46.32,-13.32 110.1,-36.84 183.21,3.1 13.44,7.34 69.78,-23.83 85.85,-24.1 54.27,-0.91 67.81,28.72 115.57,43.8 -18.38,122.84 -40.63,278.95 -59.7,414.7 h -144.02 c 0.01,-51.2 0.01,-108.54 -0.02,-134.31 -0.04,-27.73 -36.93,-36.75 -36.52,-87.45 0.08,-9.8 -26.66,-5.35 -26.93,-1.05 -3.51,55.04 -34.26,71.48 -34.35,88.5 -0.14,26.04 -0.15,83.24 -0.11,134.31 h -29.47 c 0.01,-46.08 0,-93.52 -0.03,-116.3 -0.03,-27.72 -36.92,-36.74 -36.51,-87.44 0.07,-9.8 -26.66,-5.36 -26.93,-1.06 -3.52,55.04 -34.26,71.48 -34.35,88.5 -0.13,23.02 -0.15,70.36 -0.12,116.3 h -88.91 v 52.77 l -409.05,46.67 c -25.63,-219.44 -71.14,-428.36 -113.84,-566.83 z m -2044.17,-3171.913 c -50.14,10.382 -99.77,22.053 -148.88,34.973 l -1175.18,3683.84 c 15.96,5.81 31.53,12.45 46.65,19.86 l 1845.08,-3592.44 c -32.49,-6.33 -64.81,-13 -96.91,-19.98 -27.59,24.13 -53.85,45.8 -74.68,56.93 -103.07,55.1 -250.9,64.37 -291.95,-20.15 -19.88,-40.91 -7.38,-91.64 5.04,-129.65 -36.97,-10.9 -73.37,-22.046 -109.17,-33.383 z m -1642.34,3716.203 -554.25,-1723.9 c -9.16,26.35 -15.43,44.41 -15.43,44.41 0,0 -33.54,181.41 -61.61,275.93 -37.75,127.09 358.17,500.33 153.94,589.78 l 429.95,833.07 c 15.38,-7.25 31.2,-13.7 47.4,-19.29 z m 277.38,-10.2 1031.76,-3615.9 -0.38,0.13 c -43.05,14.49 -85.77,29.95 -128.09,46.44 -80.33,31.28 -159.24,66.16 -236.45,104.49 -79.5,39.46 -157.17,82.57 -232.73,129.13 -38.96,24.01 -77.33,48.94 -115.13,74.73 l -2.14,1.47 -366.61,3249.19 c 16.9,2.57 33.5,6.03 49.77,10.32 z m -186.06,-11.48 -282.99,-2453.68 c -123.08,183.82 -226.04,382.2 -305.82,591.92 l 538.64,1871.29 c 16.39,-4.04 33.14,-7.23 50.17,-9.53 z m 93.66,-3.38 255.9,-3132.27 -1.68,1.32 c -32.69,25.69 -64.85,52.03 -96.43,79.06 -63.13,54.04 -123.97,110.74 -182.32,169.9 -58.37,59.19 -114.24,120.84 -167.43,184.72 -26.62,31.98 -52.54,64.53 -77.81,97.59 l -0.03,0.04 218.86,2599.21 c 8.28,-0.37 16.6,-0.52 24.96,-0.46 v 0 c 8.71,0.07 17.37,0.37 25.98,0.89 z m 4585.9,-458.69 c -16.9,119.46 -39.22,269.83 -59.15,402.31 l 82.52,-9.42 v -56.65 h 268.53 c 21.19,-84.28 38.7,-170.01 52.36,-256.99 -32.99,-22.36 -75.34,-44.15 -133.53,-30.13 -13.08,3.16 -80.84,-50.17 -94.38,-55.27 -58.2,-21.93 -59.74,9.35 -116.35,6.15 z m 343.94,-833.56 c -21.89,67.17 -43.72,130.05 -64.74,187.89 l 85.51,-27.4 c -5.47,-53.95 -12.41,-107.47 -20.77,-160.49 z"
   style="fill:#ffffff;fill-opacity:1" />
    <path
   id="in-paradise"
   serif:id="in paradise"
   d="m 5804.9091,6425.5723 117.59,-10.76 c 0,0 163.93,580.93 192.07,680.67 0,0 -113.16,10.22 -113.16,10.22 -10.4,-36.41 -45.76,-160.33 -45.76,-160.33 -1.66,-5.79 -7.2,-9.58 -13.2,-9.01 l -163.22,15.39 c -5.18,0.49 -9.52,4.14 -10.89,9.16 l -43.55,159.94 c 0,0 -107.46,9.26 -107.46,9.26 z m 1375.61,576.38 h 10.09 c 0.42,0 0.83,-0.02 1.25,-0.06 34.79,-3.52 58.76,-15.36 72.68,-33.91 9.61,-12.82 14.67,-29.01 14.67,-48.75 0,-28.52 -8.93,-48.6 -25.09,-60.93 -14.5,-11.07 -34.22,-20.2 -59.27,-27.12 -0.02,-0.01 -0.04,-0.01 -0.06,-0.02 l -56.86,-15.39 c -58.3,-15.75 -99.17,-38.81 -121.97,-70.3 -22.82,-31.51 -33.85,-74.03 -33.85,-127.36 0,-38.82 8.62,-74.02 25.96,-105.57 17.35,-31.54 41.35,-57.31 72,-77.33 30.75,-20.09 66.46,-31.88 107.07,-35.53 0.17,-0.02 0.34,-0.04 0.51,-0.06 4.36,-0.57 8.86,-0.85 13.5,-0.85 h 15.13 c 50.06,0 89.59,13.47 118.32,41.22 27.62,26.69 47.33,66.62 59.74,119.49 0,0 -105.97,42.58 -105.97,42.58 -7.29,-27.52 -17.44,-47.3 -29.78,-59.64 -15.34,-15.35 -36.08,-23.39 -62.48,-23.39 -3.11,0 -6.02,0.21 -8.73,0.62 -1.57,0.24 -3.24,0.34 -5.03,0.34 -0.39,0 -0.79,0.02 -1.19,0.06 -23.38,2.23 -42.06,10.63 -56.23,24.76 -14.72,14.67 -22.02,32.06 -22.02,52.14 0,19.09 4.17,35.58 12.22,49.54 8.29,14.37 24.93,26.08 50.89,33.65 0.01,0 0.02,0.01 0.03,0.01 l 73.37,21.17 c 55.56,15.95 97.23,37.75 124.71,65.97 26.69,27.41 39.55,66.3 39.55,116.34 0,72.12 -19,129.69 -57.74,172.47 -38.68,42.71 -93.05,66.8 -162.84,72.9 -0.18,0.02 -0.36,0.04 -0.54,0.06 -4.35,0.57 -8.7,0.86 -13.05,0.86 h -14.67 c -51.33,0 -92.24,-14.16 -122.47,-43.18 -29.13,-27.97 -50.18,-69.81 -63.73,-125.23 0,0 112.63,-44.71 112.63,-44.71 7.38,24.66 17.99,44.01 31.51,58.19 16.96,17.79 39.47,26.96 67.74,26.96 z m -2407.81,-577.09 117.59,-10.77 c 0,0 192.07,680.67 192.07,680.67 0,0 -113.16,10.23 -113.16,10.23 0,0 -45.76,-160.33 -45.76,-160.33 -1.66,-5.79 -7.2,-9.58 -13.2,-9.02 l -163.22,15.39 c -5.18,0.49 -9.52,4.14 -10.89,9.17 0,0 -34.27,125.86 -43.56,159.93 0,0 -107.45,9.27 -107.45,9.27 z m 1583.26,686.83 -177.14,15.18 c 0,0 0,-686.84 0,-686.84 0,0 171.09,-15.34 171.09,-15.34 0.03,0 0.05,0 0.08,-0.01 6.52,-0.62 13.05,-1.08 19.58,-1.4 6.51,-0.31 12.73,-0.46 18.66,-0.46 82.36,0 144.77,26.63 186.82,80.78 42.93,55.29 63.85,135.89 63.85,241.5 0,77.45 -12.04,142.75 -36.45,195.84 -24.02,52.24 -57.17,92.57 -99.65,120.84 -42.62,28.37 -91.58,44.97 -146.84,49.91 z m -2653.93,-690.97 116.21,-11.08 c 0,0 0,687.73 0,687.73 0,0 -111.77,10.59 -111.77,10.59 0,0 -156.82,-352.55 -156.82,-352.55 -0.02,-0.03 -0.03,-0.05 -0.04,-0.08 -3.2,-8.35 -14.18,-32.03 -21.96,-48.79 -5.67,-12.22 -10.38,-15.11 -17.44,-14.16 -3.97,0.53 -6.72,6.38 -6.48,11.88 0,0 1.98,53.35 2.28,73.74 0.31,20.6 0.77,40.23 1.38,58.9 0.61,18.41 0.91,31.42 0.91,39.04 0,0 0,240.54 0,240.54 0,0 -114.38,9.47 -114.38,9.47 0,0 0,-686.85 0,-686.85 0,0 113.69,-9.8 113.69,-9.8 0,0 154.93,337.28 154.93,337.28 3.47,7.9 20.39,46.74 25.67,58.66 4.33,9.77 11.01,11.43 14.37,10.86 5.32,-0.9 6.32,-5.67 5.85,-13.72 -1.52,-26.19 -2.29,-44.11 -3.21,-61.12 -0.91,-16.93 -1.68,-33.22 -2.29,-48.87 -0.6,-15.49 -0.9,-26.71 -0.9,-33.67 z m 644.8,449.5 c -0.01,0 -0.02,0 -0.03,0 l -85.28,7.7 c -6.44,0.58 -11.37,5.98 -11.37,12.45 v 225.23 c 0,0 -114.39,10.26 -114.39,10.26 0,-90.7 0,-604.52 0,-687.79 0,0 217.9,-20.12 217.9,-20.12 0.34,-0.03 0.67,-0.07 1,-0.13 2.95,-0.52 5.91,-0.78 8.86,-0.78 h 11 c 35.77,0 66.34,8.32 91.6,25.3 25.33,17.01 44.77,40.49 58.42,70.34 13.99,30.58 20.88,66.38 20.88,107.36 0,74.25 -17.46,133.43 -53.14,177.3 -35.18,43.27 -83.73,67.43 -145.45,72.88 z m 1104.42,-59.95 c -5.85,3.36 -7.97,10.77 -4.79,16.72 l 143.34,268.15 c 0,0 -129.69,11.93 -129.69,11.93 0,0 -127.25,-244.6 -127.25,-244.6 -2.36,-4.53 -7.23,-7.17 -12.3,-6.67 l -39.44,3.85 c -6.4,0.62 -11.28,6.01 -11.28,12.44 v 242.54 c 0,0 -114.38,10.27 -114.38,10.27 0,0 0,-597.34 0,-687.78 0,0 210.54,-19.17 210.54,-19.17 0.24,-0.02 0.48,-0.05 0.72,-0.08 3.61,-0.54 6.97,-0.83 10.07,-0.83 h 11 c 52.71,0 93.81,16.75 123,50.94 29.7,34.78 44.23,80.41 44.23,136.67 0,48.49 -8.33,89.96 -25.3,124.34 -16.65,33.74 -42.86,60.79 -78.47,81.28 z m 2174.79,177.26 c 0,3.52 1.49,6.88 4.09,9.25 2.61,2.37 6.09,3.53 9.59,3.2 l 240.33,-22.76 c 0,0 0,112.44 0,112.44 0,0 -299.39,27.89 -367.47,34.23 0,-90.83 0,-604.47 0,-687.74 0,0 351.88,-32.33 351.88,-32.33 0,0 0,113.43 0,113.43 0,0 -227.07,21.08 -227.07,21.08 -6.43,0.59 -11.35,5.99 -11.35,12.44 v 133.72 c 0,3.53 1.49,6.89 4.1,9.26 2.61,2.37 6.1,3.52 9.6,3.19 l 176.12,-16.96 c 0,0 0,111.49 0,111.49 0,0 -178.51,17.19 -178.51,17.19 -6.41,0.62 -11.31,6 -11.31,12.44 z m -873.65,-561.04 116.22,-11.08 c 0,0 0,686.78 0,686.78 0,0 -116.22,11.09 -116.22,11.09 z m -3617.52,0 116.22,-11.08 c 0,0 0,686.78 0,686.78 0,0 -116.22,11.09 -116.22,11.09 z m 3169.01,118.55 c -6.54,0.47 -11.6,5.91 -11.6,12.47 v 429.06 c 0,3.49 1.46,6.82 4.03,9.19 2.56,2.36 6,3.55 9.48,3.27 l 35.76,-2.89 c 0.03,0 0.06,0 0.08,0 54.93,-4.81 98.32,-26.1 130.37,-63.49 31.46,-36.71 47.94,-94.6 47.94,-174.08 0,-54.98 -5.39,-97.68 -15.8,-128.15 -11.21,-32.78 -28.53,-55.69 -51.29,-69.23 -22.16,-13.18 -50.39,-20.03 -84.79,-20.03 -6.35,0 -12.54,0.16 -18.58,0.5 -5.92,0.33 -12.3,0.81 -19.15,1.46 0,0 -26.45,1.92 -26.45,1.92 z m -491.39,278.7 c 11.61,-39.76 21.24,-77.6 28.88,-113.52 7.64,-35.91 14.22,-71.83 19.72,-107.74 h 3.67 c 4.89,35.27 11.15,69.74 18.79,103.41 7.64,33.68 16.97,69.75 27.97,108.23 z m -1032.2,-0.71 c 11.61,-39.77 21.24,-77.61 28.88,-113.52 7.64,-35.92 14.22,-71.83 19.72,-107.75 h 3.67 c 4.89,35.27 11.15,69.75 18.79,103.42 7.64,33.67 16.97,69.74 27.97,108.22 z m -518.8,-282.78 c -6.42,0.6 -11.34,5.99 -11.34,12.45 v 200.1 c 0,3.51 1.48,6.87 4.07,9.23 2.6,2.37 6.08,3.54 9.58,3.21 l 62.35,-5.77 c 0.05,0 0.11,-0.01 0.16,-0.01 27.54,-2.89 50.59,-14.13 69.18,-33.63 18.35,-19.26 28.21,-48.29 28.21,-87.51 0,-38.22 -8.39,-64.8 -23.17,-80.3 -15.39,-16.15 -36.2,-24.56 -62.69,-24.56 -2.4,0 -5.01,0.2 -7.81,0.62 -1.57,0.24 -3.24,0.34 -5.03,0.34 -0.38,0 -0.77,0.02 -1.15,0.06 z m 1019.66,-0.96 c -6.41,0.61 -11.31,6 -11.31,12.44 v 188.56 c 0,3.52 1.48,6.88 4.09,9.25 2.61,2.37 6.09,3.53 9.6,3.19 l 60.52,-5.77 c 0.03,0 0.05,0 0.08,-0.01 28.61,-2.92 51.2,-14.61 67.94,-34.74 16.28,-19.56 24.9,-46.98 24.9,-82.55 0,-35.33 -8.94,-59.83 -24.72,-74.19 -16.04,-14.58 -35.78,-22.01 -59.3,-22.01 h -10.09 c -0.4,0 -0.79,0.02 -1.19,0.06 z"
   style="fill:#ffffff;fill-opacity:1" />
    <path
   id="weiss-simpel"
   serif:id="weiss simpel"
   d="m 4736.9391,7864.8023 c 0,0 -198.32,261.94 -198.32,374.2 0,109.45 88.86,198.32 198.32,198.32 109.46,0 198.32,-88.87 198.32,-198.32 0,-112.26 -198.32,-374.2 -198.32,-374.2 z m 1918.19,-760.42 c -20.42,34.69 -44.47,74.28 -73.37,120.51 -93.17,149 -170.34,246.06 -284.23,171.29 -88.38,-58.03 -60.84,-149.31 -198.84,-121.93 -73.46,14.58 -118.64,150.76 -166.65,211.76 -35.12,44.63 -74.21,31.29 -114.79,-10.84 -115.58,-120.01 -170.06,-165.44 -331.79,-3.42 -193.65,194 -365.5,-308 -603.06,-55.1 -32.94,35.07 -70.05,132.02 -134.31,164.16 -71.72,35.85 -152.93,-153.01 -223.85,-82.08 -97.71,97.71 -144.49,312.27 -164.16,447.7 -29.08,200.2 -323.85,190.3 -365.62,22.38 -45.73,-183.86 -93.02,-354.17 -208.93,-470.08 -78.75,-78.76 -118.22,243.09 -305.93,149.23 -115.62,-57.81 -73.38,-210.59 -171.62,-276.08 -101.12,-67.42 -215.21,-25.53 -313.39,-74.62 -60.42,-30.21 -94.91,-106.25 -156.69,-126.85 -39.31,-13.1 -98.64,-4.54 -134.31,-22.38 -51.86,-25.93 -46.69,-101.69 -97,-126.85 -36.41,-18.2 -123.52,7.46 -164.16,7.46 -62.99,0 -236.35,-74.34 -255.23,-112.1 -8.95,-17.89 -31.63,-52.23 -52.23,-52.23 -27.52,0 -123.77,47.85 -149.24,22.38 -83.42,-83.42 -138.89,-276.4 -170.42,-402.52 -2.19,-8.78 -17.29,-49.85 -7.46,-59.69 20.14,-20.14 155.5,-72.28 207.55,-86.92 2.89,-2.19 5.92,-4.37 9.11,-6.54 -467.84,-537.72 -751.23,-1240.08 -751.23,-2008.11 0,-4.39 4.59,-152.51 -2.35,-220.03 -6.45,-62.74 -21.33,-116.91 -39.3,-185.07 -15.44,-53.71 -42.883,-147.85 -55.067,-188.9 -14.49,-44.46 -64.547,-138.61 -83.112,-172.97 -2.94,-5.04 -5.292,-9.39 -6.919,-12.85 -5.981,-12.74 -0.755,-27.92 11.798,-34.28 12.553,-6.35 27.885,-1.58 34.611,10.78 1.256,2.31 3.913,7.2 7.567,14.03 19.51,33.14 65.312,97.07 93.162,135.33 23.83,32.38 59.22,80.57 97.14,132.25 -30.61,-87.84 -75.85,-211.93 -98.49,-273.15 -10.99,-28.16 -22.48,-52.71 -34.14,-74.37 -5.75,-7.91 -10.87,-15.2 -15.124,-21.57 -9.411,-14.09 -14.868,-25.14 -16.255,-30.57 -2.101,-8.22 -0.645,-14.45 1.022,-18.54 3.629,-8.92 11.882,-15.1 21.457,-16.07 9.57,-0.98 18.9,3.4 24.26,11.4 9.83,14.67 19.73,30.87 29.52,48.93 31.14,42.68 80.45,103.67 106.94,135.29 -8.33,-41.52 -23.9,-105.05 -37.16,-142.06 -12.52,-34.59 -24.15,-64.23 -34.71,-89.29 -32.18,-51.1 -57.23,-105.68 -62.07,-117.17 -2.34,-5.55 -2.68,-9.05 -2.74,-9.63 -1.1,-11.02 4.9,-21.53 14.95,-26.19 10.05,-4.66 21.94,-2.45 29.65,5.51 8.99,9.29 33.11,46.6 65.57,121.83 17.29,26.38 47.1,71.17 71.3,103.78 -0.55,-5.42 -1.26,-10.7 -2.16,-15.4 -5.4,-26.5 -104.24,-358.46 -110.79,-375.68 -0.04,-0.09 -0.07,-0.17 -0.1,-0.26 -0.85,-2.3 -2.25,-5.88 -4.19,-10.68 -5.14,-12.67 0.42,-27.17 12.72,-33.16 12.3,-5.99 27.14,-1.43 33.96,10.42 29.83,51.88 52.38,82.34 69.39,97.7 2.89,2.26 8.93,4.8 11.63,5.88 9.38,-2.93 35.92,-10.88 59.4,-14.91 -7.24,-21.04 -20.01,-56.28 -43.19,-116.95 -1.68,-4.22 -3.36,-8.39 -5.03,-12.55 -1.83,9.07 -8.46,16.88 -17.93,19.76 -13.74,4.18 -28.29,-3.58 -32.47,-17.32 -2.15,-7.04 -3.28,-15.19 -1.75,-28.85 0.62,-5.6 5.62,-34.08 12.43,-71.76 -101.27,-247.99 -135.89,-314.24 -141.44,-326.12 -5.94,-12.75 -0.68,-27.91 11.88,-34.24 12.55,-6.32 27.87,-1.53 34.58,10.83 21.86,40.28 70.37,132.32 118.53,220.95 8.2,-44.36 15.52,-83.68 19.02,-102.28 0.01,-0.05 0.02,-0.11 0.03,-0.16 8.27,-42.51 17.58,-90.3 18.62,-95.57 2.78,-14.09 16.48,-23.27 30.57,-20.49 14.09,2.79 23.27,16.48 20.49,30.57 -1.04,5.26 -10.33,52.92 -18.58,95.35 -5.09,27.1 -18.39,98.4 -30.57,164.67 29.99,53.91 56.6,99.77 72.25,122.11 17.52,24.5 35.77,48.13 44.78,55.81 2.23,1.77 5.21,3.59 7.71,5.01 1.5,-2.02 2.78,-4.27 3.47,-6.23 7.14,-22.17 28.54,-140.65 37.59,-192.67 4.09,-24.93 9.27,-57.13 10.44,-64.39 2.28,-14.18 15.64,-23.84 29.82,-21.56 14.18,2.27 23.84,15.64 21.57,29.82 -1.18,7.29 -6.39,39.66 -10.49,64.68 -0.02,0.08 -0.03,0.16 -0.04,0.25 -9.41,54.07 -32.13,177.67 -39.48,200.2 -0.03,0.09 -0.06,0.18 -0.09,0.26 -4.86,14.39 -20.47,33.07 -31.42,39.56 -0.41,0.24 -0.84,0.48 -1.27,0.7 -6.3,3.28 -14.41,4.89 -23.88,3.3 -10.27,-1.73 -24.12,-8.3 -36.91,-18.68 -0.11,-0.09 -0.23,-0.18 -0.34,-0.28 -9.93,-8.34 -30.35,-33.19 -50.09,-60.37 33.82,88.77 44.48,120.96 48.57,134.65 7.73,4.61 14.76,10.66 21.04,17.88 20.71,23.82 32.47,61.95 32.43,96.7 -0.05,46.18 -22.16,83.62 -57.35,89.31 -14.17,2.29 -27.54,-7.36 -29.83,-21.54 -2.3,-14.17 7.35,-27.54 21.53,-29.84 3.81,-0.61 5.92,-3.91 7.76,-7.53 4.2,-8.24 5.84,-19.06 5.85,-30.45 0.02,-19.02 -4.76,-39.75 -14.31,-55.17 -6.42,-10.35 -14.97,-18.66 -27.08,-17.32 -32.26,3.58 -69.65,17 -71.96,17.24 -0.22,0.02 -0.45,0.04 -0.67,0.06 -10.49,0.8 -26.7,-4.25 -39.58,-11.79 31.46,105.39 70.66,239.14 73.84,255.08 0.01,0.06 0.02,0.12 0.03,0.18 5.08,26.4 7.36,54.94 5.27,72.06 -1.96,16.08 -9.02,26.2 -15.18,30.77 -3.09,2.29 -6.64,3.87 -10.41,4.62 -11.18,2.24 -20.38,0.23 -27.83,-4.06 -0.12,-0.07 -0.24,-0.14 -0.35,-0.21 -2.84,-1.69 -6.79,-5.02 -11.48,-9.73 11.07,43.26 20.44,87.85 23.14,108.14 0.01,0.04 0.01,0.09 0.02,0.14 1.85,14.49 -0.09,25.4 -7.38,41.74 -5.67,12.68 -20.29,18.68 -33.23,13.63 -16.8,-6.56 -27.04,-12.74 -36.84,-22.88 -0.01,-0.02 -0.03,-0.04 -0.05,-0.05 -2.38,-2.48 -7.7,-8.63 -15.02,-17.34 39.81,109.67 91.18,253.93 97.71,281.92 0.03,0.11 0.05,0.22 0.08,0.33 2.27,10.38 5.44,24.95 9.02,41.32 l 57.34,78.28 c 0.05,0.07 0.1,0.15 0.16,0.22 39.93,55.8 78.22,113.23 100.18,155.09 0.01,0.02 0.02,0.05 0.03,0.07 11.42,21.93 27.22,65.48 27.6,89.35 0,0.24 0,0.48 0,0.71 -0.27,22.49 -8.82,36.19 -18.27,42.71 -0.51,0.36 -1.04,0.69 -1.58,1.01 -4.36,2.57 -11.62,4.95 -20.1,5.39 -9.06,0.48 -19.66,-1.16 -26.79,-4.18 -0.18,-0.07 -0.36,-0.15 -0.54,-0.23 -16,-7.21 -53.37,-40.01 -69.97,-62.9 -0.04,-0.06 -0.08,-0.11 -0.12,-0.17 -22.23,-31.15 -55.75,-110.4 -70.91,-170.1 -0.02,-0.08 -0.04,-0.15 -0.06,-0.23 -5.81,-23.75 -16.51,-72.22 -25.45,-113.12 -42.54,-58.04 -90.61,-123.57 -130.14,-177.41 12.98,44.34 28.78,98.72 39.15,134.76 0.05,0.18 0.1,0.37 0.15,0.55 18.53,70.25 31.06,130.21 40.49,190.7 0.01,0.06 0.02,0.12 0.03,0.18 5.12,34.46 2.96,215.15 2.96,227.77 0,758.79 281.4,1452.36 745.48,1982 377.86,-195.19 822.29,-359.64 1188.59,-481.94 38,-12.69 78.93,-25.05 122.61,-37.08 -22.15,68.38 -40.78,122.72 -25.54,137.52 2.34,2.26 5.61,4.41 9.68,6.43 -12.38,-59 78.57,-208.57 80.92,-336.32 0.56,-30.44 -3.78,-52.65 7.41,-60.59 19.64,-13.92 61.46,-51.87 83.67,42.22 25.55,108.28 54.26,278.69 13.37,378.97 58.68,-0.1 109.01,-6.08 115.15,-18.45 26.51,-53.39 31.83,-136.26 26.4,-221.06 67.14,-12.92 137.73,-25.21 211.22,-36.79 -72.25,256.08 -174.51,486.9 -122.39,537.49 1,0.98 2.07,1.94 3.2,2.9 -7.08,-169 205.07,-547.66 210.82,-859.71 1.44,-78.06 -3.41,-118.09 25.29,-138.44 50.39,-35.73 169.76,-139.46 226.72,101.92 65.54,277.75 139.19,714.89 34.3,972.13 150.52,-0.26 279.63,-15.6 295.39,-47.34 77,-155.04 84.32,-407 60.81,-653.29 88.18,-6.95 178.1,-13.04 269.37,-18.2 19.11,-51.97 36.01,-107.66 36.97,-159.28 0.56,-30.43 -8.67,-50.9 2.52,-58.83 19.64,-13.93 61.46,-51.88 83.66,42.22 7.2,30.52 17.96,66.91 23.98,104.36 -9.05,28.08 -19.22,55.46 -29.61,81.9 -61.79,190.49 -112.51,341.17 -70.01,382.98 -10.09,-175.66 228.58,-561.99 241.29,-981.61 2.64,-86.88 -6.73,-105.23 25.23,-127.89 56.1,-39.77 189.06,-153.56 252.47,115.15 72.97,309.21 154.96,795.87 38.19,1082.25 167.56,-0.29 311.3,-17.38 328.84,-52.7 56.11,-112.98 78.99,-272.2 80.75,-445.59 385.44,9.08 767.32,36.8 1116.85,87 190.01,-387.44 299.18,-821.65 305.44,-1280.53 0.19,-13.91 0.29,-27.84 0.29,-41.8 0,-1605.59 -1260.01,-2919.223 -2844.25,-3005.13 0,0 -76.12,-2.826 -108.08,-1.713 -74.26,2.587 -110.86,6.797 -156.47,20.017 l -0.33,0.099 c -7.04,28.034 -14.41,54.916 -21.05,75.144 -48.82,148.733 -185.53,201.483 -242.98,201.083 -28.45,-0.19 -43.87,-14.39 -47.98,-26.96 -8.63,-26.47 -2.98,-60.05 16.19,-95.256 24.22,-44.499 70.04,-93.033 124.59,-131.503 30.74,-21.676 87.14,-47.235 127.45,-62.415 5.91,-24.838 11.31,-49.181 15.42,-69.009 -26,27.803 -54.69,54.918 -81.26,74.532 -21.89,16.173 -42.77,27.327 -59.95,31.473 -17.53,4.231 -32.59,1.982 -44.5,-5.367 -17.67,-10.907 -27.6,-32.361 -27.89,-60.337 -31.51,30.196 -70.39,64.079 -85.76,72.598 -0.05,0.026 -0.09,0.051 -0.14,0.076 -26.66,14.566 -47.84,10.713 -58.83,2.442 -4.75,-3.579 -8.09,-8.638 -9.55,-14.291 -11.05,8.043 -23.29,15.454 -34.01,20.248 -11.44,5.113 -21.87,7.287 -29.24,6.997 -0.4,-0.016 -0.8,-0.041 -1.2,-0.075 -12.73,-1.091 -33.52,-12.815 -40.91,-23.115 -0.24,-0.334 -0.47,-0.673 -0.69,-1.017 -4.1,-6.325 -7.66,-16.552 -9.14,-29.251 -0.05,-0.389 -0.09,-0.78 -0.13,-1.173 -13.14,16.932 -29.05,36.075 -44.36,51.272 -18.49,18.355 -37.33,30.502 -50.45,32.885 -0.29,0.052 -0.58,0.1 -0.87,0.143 -10.13,1.486 -24.22,-0.445 -30.84,-3.12 -7.15,-2.893 -11.38,-7.362 -13.69,-10.778 -0.63,-0.942 -1.21,-1.925 -1.72,-2.943 -1.13,-2.274 -2.46,-5.818 -3.01,-10.764 -9.55,11.44 -18.22,20.87 -25.03,27.023 -0.04,0.034 -0.08,0.067 -0.11,0.1 -16.3,14.551 -40.13,32.286 -58.36,42.018 -11.29,6.027 -21.4,9.113 -28.27,9.557 -24.64,1.596 -42.9,-5.323 -56.01,-16.817 -18.23,-15.978 -27.4,-42.952 -24.9,-76.521 4.89,-65.609 54.94,-160.332 126.98,-212.342 26.61,-19.21 60.95,-30.658 80.99,-29.294 19.95,1.358 31.98,11.823 36.36,26.77 4.04,13.782 -3.87,28.251 -17.65,32.291 -9.29,2.722 -18.88,0.021 -25.39,-6.252 -8.32,2.394 -31.15,9.514 -43.84,18.681 -59.27,42.783 -101.53,120.043 -105.55,174.011 -1.06,14.312 -0.47,26.709 7.3,33.521 4.06,3.555 9.98,4.465 17.48,4.056 1.32,-0.578 9.11,-4.042 14.21,-7.124 14,-8.457 30.24,-20.895 41.98,-31.37 23.65,-21.431 71.52,-86.699 94.91,-130.345 0,-0.01 0.01,-0.012 0.01,-0.019 2.61,-4.855 10,-20.407 19.34,-40.462 13.98,-39.694 28.22,-80.016 37.28,-105.552 0.03,-0.088 0.07,-0.176 0.1,-0.264 21.95,-59.81 46.88,-117.86896 72.23,-163.77396 5.91,-10.705 18.48,-15.85 30.2,-12.362 11.72,3.488 19.43,14.667 18.53,26.863 -1.64,22.165 -37.17,110.42296 -56.33,156.80596 -0.08,0.197 -0.16,0.392 -0.25,0.587 -12.39,28.039 -35.76,79.177 -53.38,116.994 l -31.16,88.568 c -4.42,12.721 -8.16,24.989 -11.16,35.605 1.13,-1.071 2.26,-2.177 3.4,-3.309 29.73,-29.509 62.56,-75.8 64.64,-79.627 0.9,-1.738 2.37,-4.68 4.35,-8.88 4.79,-10.145 15.31,-15.76 25.87,-14.808 9.03,-21.612 20.24,-41.256 30.43,-55.683 0.03,-0.043 0.06,-0.085 0.09,-0.128 12.02,-16.803 31.54,-39.041 52,-57.25 0.07,-0.06 0.14,-0.119 0.21,-0.178 15.54,-13.546 38.97,-27.393 56.3,-34.298 10.79,-4.304 20.15,-5.95 26.07,-5.721 0.19,0.01 0.39,0.017 0.58,0.029 13.5,0.823 26.47,7.244 38.12,22.605 5.08,-7.695 9.47,-13.738 12.73,-17.32 7.49,-8.241 19.39,-10.803 29.6,-6.375 10.22,4.429 16.49,14.868 15.59,25.967 -0.38,4.759 -1.53,11.967 -25.17,59.246 -0.03,0.06 -0.06,0.12 -0.09,0.18 -15.63,30.663 -38.6,68.05 -61.4,100.966 -5.66,13.624 -10.72,27.219 -14.58,39.444 28.8,-22.8 77.93,-69.701 94.57,-89.732 5,-6.04 21.39,-28.521 38.89,-52.816 3.55,-6.931 7.24,-13.648 10.98,-20.048 15.89,-27.154 33.22,-48.602 46.72,-58.535 7.2,-5.298 13.49,-5.2 16.79,-5.026 7.77,0.408 13.64,3.681 18.1,8.721 3.31,3.735 6.89,9.425 6.54,18.304 -0.04,0.74 0.44,5.94 -4.13,13.061 -0.16,0.236 -1.12,1.652 -2.8,4.024 -6.81,9.634 -28.32,39.804 -48.9,68.337 -9.49,19.432 -17.86,40.639 -23.38,60.403 -4.32,15.461 -6.91,30.004 -6.09,41.975 0.32,4.614 -0.02,8.954 2.76,11.109 0.64,0 2.41,-0.021 3.5,-0.211 2.14,-0.37 4.39,-1.022 6.74,-1.868 10.94,-3.936 23.3,-11.585 36.43,-21.279 48.48,-35.8 104.67,-98.87 133.76,-139.879 2.36,-3.335 4.7,-6.94 6.82,-10.395 6.67,-23.849 13.27,-44.348 18.58,-55.16 4,-8.141 11.95,-13.611 20.98,-14.439 9.03,-0.827 17.85,3.108 23.26,10.386 3.91,5.267 5.83,11.218 5.3,18.346 -0.19,2.571 -0.77,5.55 -2.11,8.872 -0.91,2.251 -8.14,37.702 -18.25,54.243 l -0.52,0.835 c -8.78,32.682 -17.52,71.158 -23.09,97.328 -2.89,14.22 -6.56,31.294 -10.7,49.53 24.95,-5.409 86.48,-13.902 150.57,-15.303 73.79,-1.613 149.34,4.306 149.34,4.306 1590.27,110.03 2847.8,1436.476 2847.8,3054.306 0,15.55 -0.12,31.06 -0.35,46.55 -6.87,460.15 -115.46,895.83 -304.3,1285.6 23.47,7.18 46.37,18.12 46.37,18.12 -26.08,201.31 -107.34,492.75 -186.22,736.29 l -56.17,-29.46 c -2.15,-1.13 -4.59,-1.61 -7.01,-1.38 l -159.56,15.4 c -6.41,0.62 -11.3,6 -11.3,12.44 v 160.35 c -10.14,-18.27 -21.99,-34.9 -35.52,-49.91 -27.89,-30.92 -63.96,-57.09 -108.31,-78.37 -32.42,-16.35 -62.21,-28.76 -89.35,-37.26 -27.69,-8.69 -59.04,-13.08 -94.06,-13.08 -6.28,0 -13.19,0.16 -20.72,0.49 -7.48,0.33 -15.28,0.82 -23.38,1.47 -0.05,0 -0.09,0.01 -0.13,0.01 l -190.73,17.32 c -6.44,0.58 -11.37,5.98 -11.37,12.45 v 376.53 l -101.89,-360.93 c -0.93,-3.31 -3.18,-6.08 -6.22,-7.68 l -91.7,-48.1 c -2.13,-1.11 -4.53,-1.59 -6.92,-1.38 l -151.3,13.47 c -5.23,0.46 -9.61,4.15 -10.97,9.22 l -150.56,563.33 -46.69,-87.24 c 67.99,-47.53 102.49,-122.17 102.49,-224.41 0,-42.44 -8.11,-80.31 -24.16,-113.65 -16.05,-33.35 -37.89,-61.8 -65.5,-85.38 -27.47,-23.45 -58.45,-41.22 -92.94,-53.28 -34.34,-12.01 -69.95,-18.02 -106.83,-18.02 h -13.3 c -5.03,0 -10.24,0.35 -15.6,1.04 0.01,0 -229.92,21.14 -229.92,21.14 -6.43,0.6 -11.35,5.99 -11.35,12.45 v 410.02 l -110.73,-392.25 c -0.93,-3.3 -3.18,-6.08 -6.22,-7.67 l -91.7,-48.11 c -2.13,-1.11 -4.53,-1.59 -6.92,-1.38 l -151.3,13.47 c -5.23,0.47 -9.61,4.15 -10.97,9.23 l -72.17,270.01 c 0,-0.73 0.01,-1.48 0.01,-2.23 0,-61.87 -13.13,-112.06 -38.77,-150.73 -25.63,-38.66 -63.02,-69.55 -112.35,-92.42 -25.52,-12.4 -49.81,-22.51 -72.85,-30.35 -23.91,-8.14 -48.79,-12.22 -74.63,-12.22 h -10.55 c -3.89,0 -7.95,0.35 -12.19,1.07 0.01,0 -237.02,22.08 -237.02,22.08 -6.42,0.6 -11.34,5.99 -11.34,12.44 v 731.14 c 0,4.65 2.58,8.91 6.7,11.07 l 91.7,48.1 c 2.13,1.12 4.54,1.6 6.94,1.38 l 157.72,-14.43 c 6.44,-0.59 11.37,-5.99 11.37,-12.45 v -224.24 c 0,0 65.61,-5.74 65.61,-5.74 70.89,-6.08 126.87,-34.31 168.11,-84.35 4.73,-5.73 9.19,-11.69 13.37,-17.88 l -80.48,301.09 c -1.51,5.64 1.1,11.58 6.27,14.29 l 91.7,48.1 c 2.14,1.13 4.55,1.6 6.96,1.38 l 155.89,-14.43 c 5.21,-0.48 9.57,-4.16 10.92,-9.22 l 42.69,-159.94 c 0,0 53.54,-4.98 53.54,-4.98 0,0 31.01,104.64 31.01,104.64 0.96,3.24 3.19,5.95 6.18,7.52 l 91.7,48.1 c 2.11,1.1 4.5,1.58 6.87,1.38 l 118.2,-10.09 55.12,28.91 c 2.13,1.12 4.55,1.6 6.94,1.38 l 157.73,-14.43 c 6.43,-0.59 11.36,-5.99 11.36,-12.45 v -124.7 c 0,0 41.55,78.59 41.55,78.59 1.18,2.24 3.01,4.06 5.25,5.23 l 91.7,48.1 c 2.11,1.11 4.51,1.59 6.89,1.38 l 73.16,-6.36 58.54,30.71 c 2.14,1.12 4.55,1.6 6.96,1.38 l 155.89,-14.43 c 5.21,-0.48 9.57,-4.17 10.92,-9.23 0,0 33.59,-125.86 42.69,-159.93 0,0 53.54,-4.98 53.54,-4.98 0,0 31.01,104.63 31.01,104.63 0.96,3.24 3.19,5.95 6.18,7.52 l 91.7,48.1 c 2.11,1.11 4.5,1.59 6.87,1.39 l 107.05,-9.14 57.43,30.12 c 2.13,1.12 4.54,1.6 6.94,1.38 l 200.82,-18.27 c 0.03,-0.01 0.05,-0.01 0.08,-0.01 61.45,-5.98 115.59,-24.49 162.47,-55.4 14.92,-9.84 28.85,-21.02 41.77,-33.56 z m -3929.34,288.51 c 0,0 -118.67,247.81 -118.67,354.02 0,65.5 53.17,118.67 118.67,118.67 65.49,0 118.66,-53.17 118.66,-118.67 0,-106.21 -118.66,-354.02 -118.66,-354.02 z m 3163.64,234.55 c 50.88,0 92.19,43.34 92.19,96.72 0,53.38 -41.31,96.71 -92.19,96.71 -50.88,0 -92.19,-43.33 -92.19,-96.71 0,-53.38 41.31,-96.72 92.19,-96.72 z m -3425.39,-423.86 c 42.27,0 76.59,34.32 76.59,76.59 0,42.27 -34.32,76.59 -76.59,76.59 -42.27,0 -76.59,-34.32 -76.59,-76.59 0,-42.27 34.32,-76.59 76.59,-76.59 z m 895.72,-780.99 -81.19,-42.58 c -2.15,-1.13 -4.59,-1.61 -7,-1.38 l -159.56,15.4 c -6.41,0.62 -11.3,6 -11.3,12.44 v 731.14 c 0,4.68 2.62,8.97 6.79,11.11 l 91.69,47.14 c 2.11,1.09 4.48,1.55 6.85,1.34 l 159.55,-14.44 c 6.44,-0.58 11.37,-5.98 11.37,-12.44 v -3.62 l 81.19,42.58 c 2.14,1.12 4.55,1.6 6.95,1.38 l 157.72,-14.43 c 6.43,-0.59 11.36,-5.98 11.36,-12.45 v -153.85 c 0,0 44.76,105.81 44.76,105.81 1.13,2.67 3.15,4.86 5.71,6.2 l 91.7,48.1 c 2.13,1.12 4.53,1.6 6.93,1.38 l 149.47,-13.47 c 6.44,-0.58 11.37,-5.98 11.37,-12.44 v -732.1 c 0,-4.65 -2.57,-8.92 -6.69,-11.07 l -91.7,-48.1 c -2.15,-1.13 -4.59,-1.61 -7.01,-1.38 l -159.55,15.39 c -6.41,0.62 -11.3,6.01 -11.3,12.45 v 147.49 c 0,0 -43.92,-99.62 -43.92,-99.62 -1.14,-2.59 -3.13,-4.72 -5.63,-6.03 l -91.7,-48.1 c -2.13,-1.12 -4.54,-1.6 -6.94,-1.38 l -148.55,13.47 c -6.44,0.58 -11.37,5.98 -11.37,12.45 z m 3045.9,534.16 c 31.18,-14.11 54.41,-37.04 69.69,-68.79 15.29,-31.75 22.93,-74.88 22.93,-129.39 0,-67.98 -9.17,-116.73 -27.51,-146.23 -2.45,-0.64 -4.89,-0.96 -7.34,-0.96 h -7.33 c -5.51,0 -10.85,0.16 -16.05,0.48 -5.2,0.32 -10.55,0.8 -16.05,1.44 l -18.34,0.97 z m -2042.13,-231.85 c 12.22,-8.98 21.7,-20.2 28.42,-33.67 6.73,-13.47 10.09,-31.11 10.09,-52.91 0,-13.47 -0.92,-24.05 -2.75,-31.75 l -35.76,2.89 z m 1019.69,-14.43 c 21.39,-16.04 32.09,-42.97 32.09,-80.81 0,-4.49 -0.15,-8.66 -0.46,-12.51 -0.3,-3.85 -0.76,-7.69 -1.37,-11.54 l -30.26,2.88 z m -2897.43,-716.43 c -39.01,24.87 -82.29,43.57 -128.49,54.76 h -201.42 c -46.23,-11.19 -89.52,-29.9 -128.51,-54.76 z m 131.08,-130.94 c -12.38,19.37 -26.28,37.68 -41.52,54.75 h -637.53 c -15.24,-17.08 -29.14,-35.39 -41.51,-54.75 z m 55.46,-130.95 c -4.44,18.76 -10.12,37.05 -16.93,54.75 h -797.62 c -6.83,-17.72 -12.5,-36 -16.94,-54.75 z m -842.37,-76.2 c -0.44,-8.47 -0.63,-17 -0.56,-25.58 1.76,-235.77 194.6,-425.76 430.37,-424 235.78,1.76 425.76,194.61 424,430.38 -0.04,6.44 -0.23,12.84 -0.56,19.2 z m -379.76,-1603.23 c 14.14,52.68 42.04,119.82 61.26,146.8 9.94,13.67 29.52,32.88 42.39,41.86 -2.68,-18.26 -13.6,-44.81 -21.09,-59.22 -18.57,-35.37 -49.33,-82.22 -82.56,-129.44 z m -438.698,-808.73 c -0.967,-2.35 -1.702,-4.91 -2.215,-7.83 -3.601,-21.84 -3.57,-64.94 -2.414,-88.18 0.846,-15.16 4.129,-55.21 4.708,-62.68 1.111,-14.32 -9.612,-26.85 -23.93002,-27.96 -14.319,-1.11 -26.846,9.62 -27.957,23.93 -0.59,7.62 -3.933,48.51 -4.786,63.87 -0.003,0.05 -0.006,0.1 -0.008,0.14 -1.309,26.19 -1.016,74.9 3.05,99.43 0.01,0.06 0.02,0.12 0.03,0.18 2.939,16.99 8.998,29.02 18.364,40.68 6.868,8.55 18.362,11.88 28.73702,8.32 l 4.358,-1.5 c 13.584,-4.66 20.826,-19.48 16.163,-33.06 -2.449,-7.13 -7.698,-12.52 -14.1,-15.34 z m 2029.628,-1923.59 -0.15,-0.644 c 0.01,0.029 0.07,0.245 0.15,0.644 l 0.49,2.184 c -3.7,-21.962 -19.95,-42.774 -35.64,-49.049 -0.35,-0.141 -0.71,-0.275 -1.07,-0.4 -7.62,-2.669 -20.01,-3.778 -30.89,-2.39 -9.04,1.154 -16.99,4.1 -21.96,7.375 -0.12,0.081 -0.24,0.163 -0.36,0.246 -5.28,3.608 -13.42,10.788 -19.53,18.639 -5.7,7.324 -9.53,15.357 -10.81,22.184 -7.2,38.468 -0.49,153.068 -15.08,240.751 -4.3,25.81 -10.34,49.09 -19.99,66.25 -5.3,9.44 -11.42,16.97 -19.98,19.78 -6.16,-3.92 -21.82,-14 -30.97,-20.89 8.29,-13.59 15.23,-26.12 19.78,-36.06 11.42,-11.15 21.01,-28.57 27.33,-50.22 14.13,-48.29 13.9,-119.051 1.74,-163.007 -5.8,-20.943 -14.91,-36.544 -24.75,-44.937 -11.64,-9.938 -24.95,-13.159 -39.6,-9.022 -12.06,3.409 -35.38,17.058 -46.92,40.246 -0.05,0.09 -0.09,0.179 -0.14,0.269 -16.82,34.796 -27.61,111.107 -26.05,143.981 0.01,0.05 0.01,0.11 0.01,0.17 0.97,17.79 4.34,44.52 9.74,69.09 0.02,0.08 0.04,0.15 0.05,0.22 3.28,14.33 10.29,33.11 17.69,49.23 -16.6,24.85 -35.47,49.95 -49.61,65.03 -1.55,-10.25 -3.13,-22.4 -3.93,-33.22 -4.05,-54.58 -8.29,-124.32 -28.19,-164.468 -9.2,-18.548 -21.69,-31.837 -36.92,-38.907 -10.07,-4.678 -21.62,-6.961 -34.87,-5.562 12.93,-46.911 25.14,-96.855 25.55,-139.475 0.01,-0.434 0,-0.869 -0.02,-1.303 -1.41,-34.825 -9.69,-54.439 -17.86,-63.571 -7.54,-8.439 -16.3,-12.184 -25.38,-12.886 -10,-0.771 -21.78,2.626 -33.18,12.552 -12.01,10.46 -25.42,30.482 -36.1,55.621 -14.72,34.653 -24.81,79.114 -21.97,117.002 1.53,20.358 4.34,138.737 9.17,244.207 -4.19,20.22 -7.91,36.65 -10.26,45.55 -10.44,39.18 -45.88,106.23 -59.74,161.19 -3.62,14.4 -9.38,26.65 -16,35.34 -0.2,-1.57 -0.32,-3.17 -0.35,-4.71 -0.55,-29.47 -4.8,-208.1 -7.34,-352.32 0.61,-5.23 1.17,-10.37 1.69,-15.38 24.71,-27.53 52.14,-57.757 60.3,-66.717 9.67,-10.62 8.89,-27.092 -1.73,-36.759 -10.62,-9.668 -27.09,-8.894 -36.76,1.727 -3.52,3.874 -10.61,11.675 -19.51,21.509 -1.54,-29.859 -4.57,-61.465 -5.71,-70.336 -0.92,-7.228 -3.1,-11.07 -3.43,-11.673 -5.75,-10.34 -17.75,-15.505 -29.21,-12.571 -11.46,2.934 -19.49,13.228 -19.56,25.057 -0.16,27.659 0.4,75.964 1.32,132.403 -11,12.33 -20.29,22.87 -25.42,28.93 0,0 0,0 -0.01,0.01 -21.07,24.93 -57.47,73.15 -71.54,98.6 -6.11,11.05 -8.53,20.11 -8.74,24.99 -0.62,14.35 10.52,26.5 24.87,27.13 13.25,0.57 24.63,-8.89 26.78,-21.65 1.33,-1.98 24.97,-37.2 45.97,-66.16 -2.81,17.23 -5.72,32.68 -8.34,43.9 -8.63,36.14 -30.49,103.33 -46,141.54 -0.42,-0.89 -0.85,-1.76 -1.28,-2.63 -10.48,-20.94 -24.82,-36.4 -42.32,-45.14 -6.32,-3.16 -13.66,-3.61 -20.32,-1.25 -6.66,2.37 -12.08,7.34 -15,13.77 -2.69,5.93 -4.27,18.45 -2.03,33.97 l 0.25,1.63 c -1.47,0.34 -3.01,0.79 -4.62,1.39 -2.17,0.79 -7.76,2.99 -9.84,3.81 -9.8,-1.92 -19.76,0.05 -29.42,6.72 -7.98,5.51 -16.52,15.71 -23.84,30.13 -20.65,40.67 -36.09,121.32 -32.03,173.19 1.79,22.96 2.51,71.51 14.43,103.85 1.31,3.52 2.74,6.88 4.31,10.07 -4.97,12.46 -12.36,29.9 -20.17,45.41 -1.68,3.34 -3.3,6.6 -4.89,9.66 -4.09,-17.95 -8.22,-42.13 -11.47,-69.66 -9.38,-84.67 -23.28,-153.89 -39.5,-185.18 -3.39,-6.53 -9.39,-11.33 -16.52,-13.19 l -6.96,-1.82 c -8.4,-2.2 -17.34,-0.07 -23.84,5.69 -5.82,5.16 -17.5,22.25 -28.31,57.52 -0.02,0.05 -0.03,0.11 -0.05,0.16 -4.75,15.85 -10.38,38.56 -15.47,63.14 -5.81,-12.07 -14.73,-20.05 -30.03,-27.57 -7.32,-3.6 -15.91,-3.55 -23.19,0.12 -7.29,3.68 -12.43,10.55 -13.89,18.58 -1.56,8.59 -2.46,14.27 -2.82,17.11 0,0.03 -0.01,0.06 -0.01,0.1 -3.59,29.62 10.9,273.82 5.44,360.58 -6.2,-18.61 -12.56,-41.95 -17.56,-69.86 -0.01,-12.21 -0.12,-24.85 -0.29,-38.01 0,-0.13 0,-0.25 0,-0.38 -2.06,-74.88 -8.51,-122.92 -13.78,-139.91 -3.81,-12.25 -15.97,-19.9 -28.66,-18.02 -12.68,1.87 -22.12,12.71 -22.22,25.53 -0.08,10.84 0.28,24.99 0.97,40.69 -9.73,-1.55 -19.08,-1.52 -26.39,0.28 -0.24,0.06 -0.48,0.13 -0.72,0.19 -20.82,5.78 -49.6,33.93 -60.01,53.78 -0.05,0.11 -0.1,0.21 -0.16,0.31 -14.74,29.08 -32.68,117.75 -32.54,162.13 0,0.05 0,0.11 0,0.16 0.22,23.51 6.17,64.38 11.94,81.69 0.04,0.13 0.08,0.25 0.13,0.37 4.64,13.27 16.49,32.85 30.25,47.86 10.89,11.88 23.18,20.72 33.76,24.24 0.2,0.07 0.4,0.13 0.6,0.19 14.38,4.41 41.53,1.54 53.28,-4.97 0.39,-0.21 0.77,-0.44 1.14,-0.67 6.9,-4.29 14.58,-12.39 21.23,-23.48 11.16,-18.61 20.76,-46.77 23.58,-66.88 l 0.03,-0.22 c 3.64,5.99 6.77,10.15 9.11,12.85 8.33,9.65 16.93,12.17 22.68,12.6 l -1.02,0.05 c 7.92,0.75 18.71,-1.22 27.25,-13.49 5.79,-8.31 13.71,-33.06 18.06,-68.65 0.01,-0.1 0.02,-0.2 0.03,-0.29 3.82,-34.36 2.18,-112.51 -0.21,-188.64 6.95,42.79 13.12,81.24 16.67,99.21 l 0.46,2.48 c 0.24,1.07 0.47,2.15 0.7,3.22 l 0.32,1.24 0.07,0.31 h 0.01 l 0.27,1.02 c 3.94,13.61 18.04,21.56 31.72,17.9 13.69,-3.67 21.92,-17.61 18.54,-31.36 -0.76,-3.09 -1.77,-8.12 -2.98,-14.7 -6.42,-40.63 -14.92,-142.88 -14.23,-172.56 1.06,-38.91 13.72,-101.5 24.05,-140.05 6.78,30.94 12.48,70.43 17.36,114.43 0.01,0.06 0.01,0.12 0.02,0.18 6.02,51.08 15.29,91.76 21.9,107.42 5.51,13.05 13.76,18.41 18.08,20.22 0.45,0.19 0.9,0.37 1.36,0.53 4.86,1.73 13.5,2.63 22.1,1.22 8.04,-1.33 15.75,-4.57 20.01,-7.66 0.28,-0.2 0.56,-0.41 0.84,-0.63 6.92,-5.45 15.63,-16.84 23.74,-31.4 7.74,-13.89 15.55,-30.91 21.86,-45.73 17.61,3.49 42.59,-1.71 74.27,-29.06 17.57,-15.16 33.6,-42.98 45.11,-77.96 15.52,-47.11 23.81,-107.63 21.31,-161.73 -0.4,-8.59 -1.08,-17.03 -2.06,-25.23 5.23,-6.05 10.18,-12.64 14.37,-19.27 0.06,-0.1 0.12,-0.2 0.18,-0.3 7.52,-12.28 21.09,-46.92 34.09,-84.49 1.53,70.54 2.82,126.5 3.11,141.89 0.92,49.03 25.89,63.97 45.68,64.06 9.8,0.04 21.02,-3.55 31.88,-12.03 15.93,-12.45 32.92,-37.71 41.29,-70.92 6.46,-25.65 17.67,-53.94 28.82,-80.77 1.34,11.6 2.76,20.73 4.27,26.62 3.43,13.37 16.7,21.74 30.25,19.06 13.54,-2.67 22.64,-15.46 20.72,-29.13 -7.32,-52.3 -5.04,-183.77 12.79,-264.16 3.46,-15.63 7.44,-29.18 12.27,-39.39 1.75,-3.72 5.21,-8.51 6.03,-9.64 6.57,-2.48 11.95,-3.481 16.51,-1.7 8.82,3.46 13.03,13.8 17.29,25.8 17.49,49.22 16.09,129.27 22.32,174.63 2.65,19.26 7.31,33.78 12.72,41.72 6.08,8.92 13.76,13.54 21.84,15.3 10.21,2.23 26.97,-0.13 44.57,-21.54 14.06,-12.85 35.04,-39.28 54.86,-67.54 12.15,9.32 28.32,20.27 38.65,25.24 9.3,4.48 17.12,5.19 21.31,4.77 38.69,-3.94 66.12,-36.16 81.06,-86.09 26.33,-87.99 16.65,-234.873 24.54,-282.135 1.1,-1.286 4.84,-5.616 7.39,-7.989 l 2.62,-0.362 c 1.55,-0.147 1.44,-0.143 3.08,-0.217 l 0.59,0.021 c 1.05,1.591 3.22,5.09 4.1,7.94 l 0.01,1.035 c 0.23,22.302 1.23,134.469 7.06,181.427 0.01,0.04 0.01,0.09 0.02,0.13 6.28,48.64 6.12,79.66 6.46,81.01 2.94,11.77 13.63,19.95 25.76,19.7 12.13,-0.24 22.49,-8.83 24.96,-20.7 l 55.97,-268.628 c 3.51,2.916 7.62,5.692 11.72,7.769 6.69,3.385 13.35,4.891 17.67,5.026 0.38,0.012 0.77,0.015 1.15,0.01 6.01,-0.078 14.01,-1.98 22.72,-6.419 12.08,-6.157 27.33,-17.913 39.3,-29.614 0.07,-0.069 0.14,-0.139 0.21,-0.209 38.5,-38.495 123.02,-163.855 148.42,-202.881 0.04,-0.069 0.09,-0.138 0.13,-0.208 12.29,-19.286 21.99,-36.274 24.77,-41.503 6.75,-12.676 1.94,-28.448 -10.74,-35.198 -12.67,-6.75 -28.45,-1.938 -35.2,10.738 -2.54,4.78 -11.43,20.268 -22.65,37.89 -24.36,37.422 -104.53,157.272 -141.4,194.23 -5.85,5.695 -15.53,12.583 -22.01,16.977 -4.2,-14.324 -12.8,-43.782 -16.16,-56.318 -3.12,-11.639 -13.83,-19.612 -25.87,-19.271 -12.05,0.342 -22.28,8.907 -24.74,20.703 l -34.62,166.148 c -0.6,-28.289 -0.8,-52.344 -0.89,-61.327 -0.05,-5.293 -0.63,-8.727 -0.9,-10.075 z m -1200.56,934.03 c -1.28,-0.47 -2.61,-0.92 -3.94,-1.35 -4.59,-1.51 -9.39,-3.18 -12.95,-2.48 -3.08,0.99 -6.26,3.69 -9.57,6.53 -7.35,6.3 -14.33,14.47 -17.8,21.01 -12.55,24.96 -26.93,100.38 -26.83,138.19 0.19,18.83 4.6,51.42 9.22,65.45 2.98,8.36 10.82,20.3 19.42,29.68 3.96,4.32 7.69,8.48 11.52,9.92 2.78,0.68 8.71,-0.29 11.6,-0.84 1.57,-2.18 5.05,-7.18 6.98,-10.99 6.5,-12.86 11.86,-29.4 13.6,-41.73 5.67,-40.62 7.36,-83.07 7.38,-133.26 l -0.18,-1.06 c -3.08,-18.25 -6.12,-48.1 -8.45,-79.07 z m 88.03,194.07 -1.23,-0.07 -0.08,-0.01 z m -3.16,-0.06 h -0.11 l 1.69,-0.02 z m 278.17,-344.57 c 1.73,0.05 3.73,-1.21 6.3,-2.35 6.58,-2.92 13.95,-8.03 22.51,-15.42 12.16,-10.49 21.71,-30.62 29.68,-54.84 13.34,-40.51 20.56,-92.23 18.91,-139.04 -1.02,0.02 -2,-0.02 -2.92,-0.1 -5.99,-0.54 -11.62,-3.13 -15.91,-7.35 -5.73,-5.61 -10.95,-13.28 -15.59,-30.24 -0.02,-0.05 -0.03,-0.09 -0.04,-0.14 -0.88,-3.27 -2.1,-7.74 -3.48,-12.95 -0.75,0.08 -1.5,0.13 -2.25,0.15 -5.48,1.75 -15.85,4.69 -24.9,5.21 -2.4,3.69 -7.22,11.43 -9.97,18.09 -7.96,19.33 -14.53,45.28 -18.58,71.34 -3.58,23.07 -5.21,46.25 -3.75,64.96 1.28,16.4 1.47,47.47 6.99,74 1.47,7.04 3.28,13.72 5.81,19.43 3.1,2.52 5.55,5.7 7.19,9.25 z m 17.88,-270.13 0.1,0.1 -0.28,-0.29 z m -1.18,-1.29 0.21,0.22 -0.33,-0.37 z m 607.79,-457.341 c -3.11,2.324 -6.37,5.764 -8.55,10.069 -13.81,28.745 -22.11,91.484 -20.84,118.622 0.87,15.61 3.86,38.99 8.58,60.53 l 0.67,2.75 c 0.51,-1.15 0.98,-2.27 1.4,-3.33 1.77,-4.49 4.77,-8.4 8.64,-11.28 10.13,-7.56 14.82,-25.47 18.63,-45.79 7.17,-38.176 6.04,-85.763 -2.6,-117.012 -1.38,-4.98 -3.98,-10.673 -5.93,-14.559 z m 1347.79,-16.465 c -29.83,12.808 -61.68,28.555 -81.57,42.58 -47.44,33.453 -87.81,75.154 -108.87,113.856 -8.85,16.26 -14.69,31.52 -14.09,44.78 4.98,0.02 12.11,-0.2 18,-1.3 52.9,-9.93 140.97,-57.63 175.7,-163.463 3.47,-10.557 7.13,-22.988 10.83,-36.453 z m -1582.91,-62.194 c -3.94,6.457 -7.75,14.242 -11.37,22.753 -11.69,27.503 -20.23,62.689 -17.97,92.759 0.47,6.271 1.03,22.052 1.72,43.944 13.94,-48.815 28.27,-102.195 28.84,-147.306 -0.19,-4.105 -0.65,-8.268 -1.22,-12.15 z m 1306.45,-184.28 c -8.66,4.035 -33.22,15.915 -44.59,25.777 -17.34,15.446 -33.91,34.237 -44.13,48.507 -10.39,14.73 -22.03,36.09 -29.94,58.963 -4.28,12.935 -6.08,30.271 -5.44,44.376 0.17,3.963 1.11,9.282 1.66,12.123 l 1.89,1.046 c 2.65,-0.967 7.46,-2.817 10.79,-4.579 12.29,-6.496 26,-16.372 34.46,-24.937 12.05,-12.516 27.28,-32.032 42.85,-54.248 2.5,-6.001 5.11,-11.964 7.8,-17.811 0.01,-0.02 0.02,-0.041 0.03,-0.061 8.44,-18.183 22.71,-45.261 37.21,-70.83 -2.43,-2.147 -4.49,-4.792 -6.02,-7.874 -1.86,-3.753 -4.76,-7.969 -6.57,-10.452 z"
   style="fill:#ffffff;fill-opacity:1" />
    <path
   id="weiss-augen"
   serif:id="weiss augen"
   d="m 4736.9391,7864.8023 c 0,0 -198.32,261.94 -198.32,374.2 0,109.45 88.86,198.32 198.32,198.32 109.46,0 198.32,-88.87 198.32,-198.32 0,-112.26 -198.32,-374.2 -198.32,-374.2 z m 776.92,-1808.28 c 167,-0.38 310.01,-17.46 327.5,-52.69 56.11,-112.98 78.99,-272.2 80.75,-445.59 385.44,9.08 767.32,36.8 1116.85,87 190.01,-387.44 299.18,-821.65 305.44,-1280.53 0.19,-13.91 0.29,-27.84 0.29,-41.8 0,-1605.59 -1260.01,-2919.223 -2844.25,-3005.13 0,0 -76.12,-2.826 -108.08,-1.713 -74.26,2.587 -110.86,6.797 -156.47,20.017 l -0.33,0.099 c -7.04,28.034 -14.41,54.916 -21.05,75.144 -48.82,148.733 -185.53,201.483 -242.98,201.083 -28.45,-0.19 -43.87,-14.39 -47.98,-26.96 -8.63,-26.47 -2.98,-60.05 16.19,-95.256 24.22,-44.499 70.04,-93.033 124.59,-131.503 30.74,-21.676 87.14,-47.235 127.45,-62.415 5.91,-24.838 11.31,-49.181 15.42,-69.009 -26,27.803 -54.69,54.918 -81.26,74.532 -21.89,16.173 -42.77,27.327 -59.95,31.473 -17.53,4.231 -32.59,1.982 -44.5,-5.367 -17.67,-10.907 -27.6,-32.361 -27.89,-60.337 -31.51,30.196 -70.39,64.079 -85.76,72.598 -0.05,0.026 -0.09,0.051 -0.14,0.076 -26.66,14.566 -47.84,10.713 -58.83,2.442 -4.75,-3.579 -8.09,-8.638 -9.55,-14.291 -11.05,8.043 -23.29,15.454 -34.01,20.248 -11.44,5.113 -21.87,7.287 -29.24,6.997 -0.4,-0.016 -0.8,-0.041 -1.2,-0.075 -12.73,-1.091 -33.52,-12.815 -40.91,-23.115 -0.24,-0.334 -0.47,-0.673 -0.69,-1.017 -4.1,-6.325 -7.66,-16.552 -9.14,-29.251 -0.05,-0.389 -0.09,-0.78 -0.13,-1.173 -13.14,16.932 -29.05,36.075 -44.36,51.272 -18.49,18.355 -37.33,30.502 -50.45,32.885 -0.29,0.052 -0.58,0.1 -0.87,0.143 -10.13,1.486 -24.22,-0.445 -30.84,-3.12 -7.15,-2.893 -11.38,-7.362 -13.69,-10.778 -0.63,-0.942 -1.21,-1.925 -1.72,-2.943 -1.13,-2.274 -2.46,-5.818 -3.01,-10.764 -9.55,11.44 -18.22,20.87 -25.03,27.023 -0.04,0.034 -0.08,0.067 -0.11,0.1 -16.3,14.551 -40.13,32.286 -58.36,42.018 -11.29,6.027 -21.4,9.113 -28.27,9.557 -24.64,1.596 -42.9,-5.323 -56.01,-16.817 -18.23,-15.978 -27.4,-42.952 -24.9,-76.521 4.89,-65.609 54.94,-160.332 126.98,-212.342 26.61,-19.21 60.95,-30.658 80.99,-29.294 19.95,1.358 31.98,11.823 36.36,26.77 4.04,13.782 -3.87,28.251 -17.65,32.291 -9.29,2.722 -18.88,0.021 -25.39,-6.252 -8.32,2.394 -31.15,9.514 -43.84,18.681 -59.27,42.783 -101.53,120.043 -105.55,174.011 -1.06,14.312 -0.47,26.709 7.3,33.521 4.06,3.555 9.98,4.465 17.48,4.056 1.32,-0.578 9.11,-4.042 14.21,-7.124 14,-8.457 30.24,-20.895 41.98,-31.37 23.65,-21.431 71.52,-86.699 94.91,-130.345 0,-0.01 0.01,-0.012 0.01,-0.019 2.61,-4.855 10,-20.407 19.34,-40.462 13.98,-39.694 28.22,-80.016 37.28,-105.552 0.03,-0.088 0.07,-0.176 0.1,-0.264 21.95,-59.81 46.88,-117.86896 72.23,-163.77396 5.91,-10.705 18.48,-15.85 30.2,-12.362 11.72,3.488 19.43,14.667 18.53,26.863 -1.64,22.165 -37.17,110.42296 -56.33,156.80596 -0.08,0.197 -0.16,0.392 -0.25,0.587 -12.39,28.039 -35.76,79.177 -53.38,116.994 l -31.16,88.568 c -4.42,12.721 -8.16,24.989 -11.16,35.605 1.13,-1.071 2.26,-2.177 3.4,-3.309 29.73,-29.509 62.56,-75.8 64.64,-79.627 0.9,-1.738 2.37,-4.68 4.35,-8.88 4.79,-10.145 15.31,-15.76 25.87,-14.808 9.03,-21.612 20.24,-41.256 30.43,-55.683 0.03,-0.043 0.06,-0.085 0.09,-0.128 12.02,-16.803 31.54,-39.041 52,-57.25 0.07,-0.06 0.14,-0.119 0.21,-0.178 15.54,-13.546 38.97,-27.393 56.3,-34.298 10.79,-4.304 20.15,-5.95 26.07,-5.721 0.19,0.01 0.39,0.017 0.58,0.029 13.5,0.823 26.47,7.244 38.12,22.605 5.08,-7.695 9.47,-13.738 12.73,-17.32 7.49,-8.241 19.39,-10.803 29.6,-6.375 10.22,4.429 16.49,14.868 15.59,25.967 -0.38,4.759 -1.53,11.967 -25.17,59.246 -0.03,0.06 -0.06,0.12 -0.09,0.18 -15.63,30.663 -38.6,68.05 -61.4,100.966 -5.66,13.624 -10.72,27.219 -14.58,39.444 28.8,-22.8 77.93,-69.701 94.57,-89.732 5,-6.04 21.39,-28.521 38.89,-52.816 3.55,-6.931 7.24,-13.648 10.98,-20.048 15.89,-27.154 33.22,-48.602 46.72,-58.535 7.2,-5.298 13.49,-5.2 16.79,-5.026 7.77,0.408 13.64,3.681 18.1,8.721 3.31,3.735 6.89,9.425 6.54,18.304 -0.04,0.74 0.44,5.94 -4.13,13.061 -0.16,0.236 -1.12,1.652 -2.8,4.024 -6.81,9.634 -28.32,39.804 -48.9,68.337 -9.49,19.432 -17.86,40.639 -23.38,60.403 -4.32,15.461 -6.91,30.004 -6.09,41.975 0.32,4.614 -0.02,8.954 2.76,11.109 0.64,0 2.41,-0.021 3.5,-0.211 2.14,-0.37 4.39,-1.022 6.74,-1.868 10.94,-3.936 23.3,-11.585 36.43,-21.279 48.48,-35.8 104.67,-98.87 133.76,-139.879 2.36,-3.335 4.7,-6.94 6.82,-10.395 6.67,-23.849 13.27,-44.348 18.58,-55.16 4,-8.141 11.95,-13.611 20.98,-14.439 9.03,-0.827 17.85,3.108 23.26,10.386 3.91,5.267 5.83,11.218 5.3,18.346 -0.19,2.571 -0.77,5.55 -2.11,8.872 -0.91,2.251 -8.14,37.702 -18.25,54.243 l -0.52,0.835 c -8.78,32.682 -17.52,71.158 -23.09,97.328 -2.89,14.22 -6.56,31.294 -10.7,49.53 24.95,-5.409 86.48,-13.902 150.57,-15.303 73.79,-1.613 149.34,4.306 149.34,4.306 1590.27,110.03 2847.8,1436.476 2847.8,3054.306 0,15.55 -0.12,31.06 -0.35,46.55 -6.87,460.15 -115.46,895.83 -304.3,1285.6 23.47,7.18 46.37,18.12 46.37,18.12 -26.08,201.31 -107.34,492.75 -186.22,736.29 l -56.17,-29.46 c -2.15,-1.13 -4.59,-1.61 -7.01,-1.38 l -159.56,15.4 c -6.41,0.62 -11.3,6 -11.3,12.44 v 160.35 c -10.14,-18.27 -21.99,-34.9 -35.52,-49.91 -27.89,-30.92 -63.96,-57.09 -108.31,-78.37 -32.42,-16.35 -62.21,-28.76 -89.35,-37.26 -27.69,-8.69 -59.04,-13.08 -94.06,-13.08 -6.28,0 -13.19,0.16 -20.72,0.49 -7.48,0.33 -15.28,0.82 -23.38,1.47 -0.05,0 -0.09,0.01 -0.13,0.01 l -190.73,17.32 c -6.44,0.58 -11.37,5.98 -11.37,12.45 v 376.53 l -101.89,-360.93 c -0.93,-3.31 -3.18,-6.08 -6.22,-7.68 l -91.7,-48.1 c -2.13,-1.11 -4.53,-1.59 -6.92,-1.38 l -151.3,13.47 c -5.23,0.46 -9.61,4.15 -10.97,9.22 l -150.56,563.33 -46.69,-87.24 c 67.99,-47.53 102.49,-122.17 102.49,-224.41 0,-42.44 -8.11,-80.31 -24.16,-113.65 -16.05,-33.35 -37.89,-61.8 -65.5,-85.38 -27.47,-23.45 -58.45,-41.22 -92.94,-53.28 -34.34,-12.01 -69.95,-18.02 -106.83,-18.02 h -13.3 c -5.03,0 -10.24,0.35 -15.6,1.04 0.01,0 -229.92,21.14 -229.92,21.14 -6.43,0.6 -11.35,5.99 -11.35,12.45 v 410.02 l -110.73,-392.25 c -0.93,-3.3 -3.18,-6.08 -6.22,-7.67 l -91.7,-48.11 c -2.13,-1.11 -4.53,-1.59 -6.92,-1.38 l -151.3,13.47 c -5.23,0.47 -9.61,4.15 -10.97,9.23 l -72.17,270.01 c 0,-0.73 0.01,-1.48 0.01,-2.23 0,-61.87 -13.13,-112.06 -38.77,-150.73 -25.63,-38.66 -63.02,-69.55 -112.35,-92.42 -25.52,-12.4 -49.81,-22.51 -72.85,-30.35 -23.91,-8.14 -48.79,-12.22 -74.63,-12.22 h -10.55 c -3.89,0 -7.95,0.35 -12.19,1.07 0.01,0 -237.02,22.08 -237.02,22.08 -6.42,0.6 -11.34,5.99 -11.34,12.44 v 731.14 c 0,4.65 2.58,8.91 6.7,11.07 l 91.7,48.1 c 2.13,1.12 4.54,1.6 6.94,1.38 l 157.72,-14.43 c 6.44,-0.59 11.37,-5.99 11.37,-12.45 v -224.24 c 0,0 65.61,-5.74 65.61,-5.74 70.89,-6.08 126.87,-34.31 168.11,-84.35 4.73,-5.73 9.19,-11.69 13.37,-17.88 l -80.48,301.09 c -1.51,5.64 1.1,11.58 6.27,14.29 l 91.7,48.1 c 2.14,1.13 4.55,1.6 6.96,1.38 l 155.89,-14.43 c 5.21,-0.48 9.57,-4.16 10.92,-9.22 l 42.69,-159.94 c 0,0 53.54,-4.98 53.54,-4.98 0,0 31.01,104.64 31.01,104.64 0.96,3.24 3.19,5.95 6.18,7.52 l 91.7,48.1 c 2.11,1.1 4.5,1.58 6.87,1.38 l 118.2,-10.09 55.12,28.91 c 2.13,1.12 4.55,1.6 6.94,1.38 l 157.73,-14.43 c 6.43,-0.59 11.36,-5.99 11.36,-12.45 v -124.7 c 0,0 41.55,78.59 41.55,78.59 1.18,2.24 3.01,4.06 5.25,5.23 l 91.7,48.1 c 2.11,1.11 4.51,1.59 6.89,1.38 l 73.16,-6.36 58.54,30.71 c 2.14,1.12 4.55,1.6 6.96,1.38 l 155.89,-14.43 c 5.21,-0.48 9.57,-4.17 10.92,-9.23 0,0 33.59,-125.86 42.69,-159.93 0,0 53.54,-4.98 53.54,-4.98 0,0 31.01,104.63 31.01,104.63 0.96,3.24 3.19,5.95 6.18,7.52 l 91.7,48.1 c 2.11,1.11 4.5,1.59 6.87,1.39 l 107.05,-9.14 57.43,30.12 c 2.13,1.12 4.54,1.6 6.94,1.38 l 200.82,-18.27 c 0.03,-0.01 0.05,-0.01 0.08,-0.01 61.45,-5.98 115.59,-24.49 162.47,-55.4 14.92,-9.84 28.85,-21.02 41.77,-33.56 -20.42,34.69 -44.47,74.28 -73.37,120.51 -93.17,149 -170.34,246.06 -284.23,171.29 -88.38,-58.03 -60.84,-149.31 -198.84,-121.93 -73.46,14.58 -118.64,150.76 -166.65,211.76 -35.12,44.63 -74.21,31.29 -114.79,-10.84 -115.58,-120.01 -170.06,-165.44 -331.79,-3.42 -193.65,194 -365.5,-308 -603.06,-55.1 -32.94,35.07 -70.05,132.02 -134.31,164.16 -71.72,35.85 -152.93,-153.01 -223.85,-82.08 -97.71,97.71 -144.49,312.27 -164.16,447.7 -29.08,200.2 -323.85,190.3 -365.62,22.38 -45.73,-183.86 -93.02,-354.17 -208.93,-470.08 -78.75,-78.76 -118.22,243.09 -305.93,149.23 -115.62,-57.81 -73.38,-210.59 -171.62,-276.08 -101.12,-67.42 -215.21,-25.53 -313.39,-74.62 -60.42,-30.21 -94.91,-106.25 -156.69,-126.85 -39.31,-13.1 -98.64,-4.54 -134.31,-22.38 -51.86,-25.93 -46.69,-101.69 -97,-126.85 -36.41,-18.2 -123.52,7.46 -164.16,7.46 -62.99,0 -236.35,-74.34 -255.23,-112.1 -8.95,-17.89 -31.63,-52.23 -52.23,-52.23 -27.52,0 -123.77,47.85 -149.24,22.38 -83.42,-83.42 -138.89,-276.4 -170.42,-402.52 -2.19,-8.78 -17.29,-49.85 -7.46,-59.69 20.14,-20.14 155.5,-72.28 207.55,-86.92 2.89,-2.19 5.92,-4.37 9.11,-6.54 -467.84,-537.72 -751.23,-1240.08 -751.23,-2008.11 0,-4.39 4.59,-152.51 -2.35,-220.03 -6.45,-62.74 -21.33,-116.91 -39.3,-185.07 -15.44,-53.71 -42.883,-147.85 -55.067,-188.9 -14.49,-44.46 -64.547,-138.61 -83.112,-172.97 -2.94,-5.04 -5.292,-9.39 -6.919,-12.85 -5.981,-12.74 -0.755,-27.92 11.798,-34.28 12.553,-6.35 27.885,-1.58 34.611,10.78 1.256,2.31 3.913,7.2 7.567,14.03 19.51,33.14 65.312,97.07 93.162,135.33 23.83,32.38 59.22,80.57 97.14,132.25 -30.61,-87.84 -75.85,-211.93 -98.49,-273.15 -10.99,-28.16 -22.48,-52.71 -34.14,-74.37 -5.75,-7.91 -10.87,-15.2 -15.124,-21.57 -9.411,-14.09 -14.868,-25.14 -16.255,-30.57 -2.101,-8.22 -0.645,-14.45 1.022,-18.54 3.629,-8.92 11.882,-15.1 21.457,-16.07 9.57,-0.98 18.9,3.4 24.26,11.4 9.83,14.67 19.73,30.87 29.52,48.93 31.14,42.68 80.45,103.67 106.94,135.29 -8.33,-41.52 -23.9,-105.05 -37.16,-142.06 -12.52,-34.59 -24.15,-64.23 -34.71,-89.29 -32.18,-51.1 -57.23,-105.68 -62.07,-117.17 -2.34,-5.55 -2.68,-9.05 -2.74,-9.63 -1.1,-11.02 4.9,-21.53 14.95,-26.19 10.05,-4.66 21.94,-2.45 29.65,5.51 8.99,9.29 33.11,46.6 65.57,121.83 17.29,26.38 47.1,71.17 71.3,103.78 -0.55,-5.42 -1.26,-10.7 -2.16,-15.4 -5.4,-26.5 -104.24,-358.46 -110.79,-375.68 -0.04,-0.09 -0.07,-0.17 -0.1,-0.26 -0.85,-2.3 -2.25,-5.88 -4.19,-10.68 -5.14,-12.67 0.42,-27.17 12.72,-33.16 12.3,-5.99 27.14,-1.43 33.96,10.42 29.83,51.88 52.38,82.34 69.39,97.7 2.89,2.26 8.93,4.8 11.63,5.88 9.38,-2.93 35.92,-10.88 59.4,-14.91 -7.24,-21.04 -20.01,-56.28 -43.19,-116.95 -1.68,-4.22 -3.36,-8.39 -5.03,-12.55 -1.83,9.07 -8.46,16.88 -17.93,19.76 -13.74,4.18 -28.29,-3.58 -32.47,-17.32 -2.15,-7.04 -3.28,-15.19 -1.75,-28.85 0.62,-5.6 5.62,-34.08 12.43,-71.76 -101.27,-247.99 -135.89,-314.24 -141.44,-326.12 -5.94,-12.75 -0.68,-27.91 11.88,-34.24 12.55,-6.32 27.87,-1.53 34.58,10.83 21.86,40.28 70.37,132.32 118.53,220.95 8.2,-44.36 15.52,-83.68 19.02,-102.28 0.01,-0.05 0.02,-0.11 0.03,-0.16 8.27,-42.51 17.58,-90.3 18.62,-95.57 2.78,-14.09 16.48,-23.27 30.57,-20.49 14.09,2.79 23.27,16.48 20.49,30.57 -1.04,5.26 -10.33,52.92 -18.58,95.35 -5.09,27.1 -18.39,98.4 -30.57,164.67 29.99,53.91 56.6,99.77 72.25,122.11 17.52,24.5 35.77,48.13 44.78,55.81 2.23,1.77 5.21,3.59 7.71,5.01 1.5,-2.02 2.78,-4.27 3.47,-6.23 7.14,-22.17 28.54,-140.65 37.59,-192.67 4.09,-24.93 9.27,-57.13 10.44,-64.39 2.28,-14.18 15.64,-23.84 29.82,-21.56 14.18,2.27 23.84,15.64 21.57,29.82 -1.18,7.29 -6.39,39.66 -10.49,64.68 -0.02,0.08 -0.03,0.16 -0.04,0.25 -9.41,54.07 -32.13,177.67 -39.48,200.2 -0.03,0.09 -0.06,0.18 -0.09,0.26 -4.86,14.39 -20.47,33.07 -31.42,39.56 -0.41,0.24 -0.84,0.48 -1.27,0.7 -6.3,3.28 -14.41,4.89 -23.88,3.3 -10.27,-1.73 -24.12,-8.3 -36.91,-18.68 -0.11,-0.09 -0.23,-0.18 -0.34,-0.28 -9.93,-8.34 -30.35,-33.19 -50.09,-60.37 33.82,88.77 44.48,120.96 48.57,134.65 7.73,4.61 14.76,10.66 21.04,17.88 20.71,23.82 32.47,61.95 32.43,96.7 -0.05,46.18 -22.16,83.62 -57.35,89.31 -14.17,2.29 -27.54,-7.36 -29.83,-21.54 -2.3,-14.17 7.35,-27.54 21.53,-29.84 3.81,-0.61 5.92,-3.91 7.76,-7.53 4.2,-8.24 5.84,-19.06 5.85,-30.45 0.02,-19.02 -4.76,-39.75 -14.31,-55.17 -6.42,-10.35 -14.97,-18.66 -27.08,-17.32 -32.26,3.58 -69.65,17 -71.96,17.24 -0.22,0.02 -0.45,0.04 -0.67,0.06 -10.49,0.8 -26.7,-4.25 -39.58,-11.79 31.46,105.39 70.66,239.14 73.84,255.08 0.01,0.06 0.02,0.12 0.03,0.18 5.08,26.4 7.36,54.94 5.27,72.06 -1.96,16.08 -9.02,26.2 -15.18,30.77 -3.09,2.29 -6.64,3.87 -10.41,4.62 -11.18,2.24 -20.38,0.23 -27.83,-4.06 -0.12,-0.07 -0.24,-0.14 -0.35,-0.21 -2.84,-1.69 -6.79,-5.02 -11.48,-9.73 11.07,43.26 20.44,87.85 23.14,108.14 0.01,0.04 0.01,0.09 0.02,0.14 1.85,14.49 -0.09,25.4 -7.38,41.74 -5.67,12.68 -20.29,18.68 -33.23,13.63 -16.8,-6.56 -27.04,-12.74 -36.84,-22.88 -0.01,-0.02 -0.03,-0.04 -0.05,-0.05 -2.38,-2.48 -7.7,-8.63 -15.02,-17.34 39.81,109.67 91.18,253.93 97.71,281.92 0.03,0.11 0.05,0.22 0.08,0.33 2.27,10.38 5.44,24.95 9.02,41.32 l 57.34,78.28 c 0.05,0.07 0.1,0.15 0.16,0.22 39.93,55.8 78.22,113.23 100.18,155.09 0.01,0.02 0.02,0.05 0.03,0.07 11.42,21.93 27.22,65.48 27.6,89.35 0,0.24 0,0.48 0,0.71 -0.27,22.49 -8.82,36.19 -18.27,42.71 -0.51,0.36 -1.04,0.69 -1.58,1.01 -4.36,2.57 -11.62,4.95 -20.1,5.39 -9.06,0.48 -19.66,-1.16 -26.79,-4.18 -0.18,-0.07 -0.36,-0.15 -0.54,-0.23 -16,-7.21 -53.37,-40.01 -69.97,-62.9 -0.04,-0.06 -0.08,-0.11 -0.12,-0.17 -22.23,-31.15 -55.75,-110.4 -70.91,-170.1 -0.02,-0.08 -0.04,-0.15 -0.06,-0.23 -5.81,-23.75 -16.51,-72.22 -25.45,-113.12 -42.54,-58.04 -90.61,-123.57 -130.14,-177.41 12.98,44.34 28.78,98.72 39.15,134.76 0.05,0.18 0.1,0.37 0.15,0.55 18.53,70.25 31.06,130.21 40.49,190.7 0.01,0.06 0.02,0.12 0.03,0.18 5.12,34.46 2.96,215.15 2.96,227.77 0,758.79 281.4,1452.36 745.48,1982 377.86,-195.19 822.29,-359.64 1188.59,-481.94 38,-12.69 78.93,-25.05 122.61,-37.08 -22.15,68.38 -40.78,122.72 -25.54,137.52 0.83,0.79 1.76,1.58 2.81,2.35 -2.24,-31.81 20.59,-84.21 43.98,-144.45 20.85,-59.24 40.73,-126.13 43.81,-187.79 3.19,-63.79 -13.37,-95.54 5.63,-108.12 4.54,-3.01 -37.63,-7.49 -15.56,-69.29 10.7,-29.96 51.85,-32.27 72.87,-27.68 22.53,4.92 75.47,12.02 20.95,108.52 -10.23,18.12 7.62,16.29 17.34,51.43 34.09,123.28 44.7,305.1 3.23,405.74 58.67,-0.1 109,-6.08 115.14,-18.45 26.51,-53.39 31.83,-136.26 26.4,-221.06 67.14,-12.92 137.73,-25.21 211.22,-36.79 -67.59,239.57 -161.44,457.02 -130.6,525.5 5.93,-98.08 76.89,-253.92 139.05,-442.26 42.97,-132.49 76.92,-273.37 83.18,-402.56 10.31,-212.55 -55.62,-234.21 -33.77,-251.13 20.97,-16.25 42.44,-31.49 53,-33.98 -32.93,-54.31 -54.44,-95.93 -41.16,-140.81 18.1,-61.16 79.7,-108.79 162.04,-98.69 146.37,17.96 159.55,133.7 100.83,256.4 -19.83,41.45 27.92,176.85 41.64,234.97 65.54,277.76 109.58,711.72 3.75,968.85 150.52,-0.26 279.61,-15.61 295.37,-47.34 77,-155.04 84.32,-407 60.81,-653.29 88.18,-6.95 178.1,-13.04 269.37,-18.2 19.11,-51.97 37.39,-102.24 42.05,-153.67 6.75,-74.32 -24.6,-92.82 6.2,-107.49 6.95,-3.3 -34.13,-26.34 -16.9,-69.73 11.28,-28.4 61.12,-43.61 79.84,-39.67 18.71,3.94 42.89,14.84 43.26,49.55 0.28,26.38 -8.01,38.96 -17.11,55.61 -7.22,13.2 -22.18,36.18 -13.22,36.67 52.42,2.9 44.15,101.61 31.44,139.18 -14.62,43.22 -26.01,77.83 -44.85,136.1 -42.62,131.81 -97.41,287.2 -70.53,336.92 3.77,-58.81 28.89,-136.99 62.15,-228.19 68.63,-197.7 176.71,-463.23 186.47,-743.54 6.14,-176.03 -24.76,-177.41 -71.79,-243.61 -39.07,-55 78.33,-70.85 97.11,-65.59 -14.35,-15.6 -54.05,-148.83 48.89,-218.5 99.52,-67.35 279.45,-54.65 307.5,47.1 13.56,49.19 9.48,131.2 -51.02,230.03 -58.05,94.84 -37.91,199.98 -32.87,233.16 47.65,314.3 169.43,788.51 19.41,1086.91 z m -2788.07,1336.37 c 0,0 -118.67,247.81 -118.67,354.02 0,65.5 53.17,118.67 118.67,118.67 65.49,0 118.66,-53.17 118.66,-118.67 0,-106.21 -118.66,-354.02 -118.66,-354.02 z m 3163.64,234.55 c 50.88,0 92.19,43.34 92.19,96.72 0,53.38 -41.31,96.71 -92.19,96.71 -50.88,0 -92.19,-43.33 -92.19,-96.71 0,-53.38 41.31,-96.72 92.19,-96.72 z m -3425.39,-423.86 c 42.27,0 76.59,34.32 76.59,76.59 0,42.27 -34.32,76.59 -76.59,76.59 -42.27,0 -76.59,-34.32 -76.59,-76.59 0,-42.27 34.32,-76.59 76.59,-76.59 z m 895.72,-780.99 -81.19,-42.58 c -2.15,-1.13 -4.59,-1.61 -7,-1.38 l -159.56,15.4 c -6.41,0.62 -11.3,6 -11.3,12.44 v 731.14 c 0,4.68 2.62,8.97 6.79,11.11 l 91.69,47.14 c 2.11,1.09 4.48,1.55 6.85,1.34 l 159.55,-14.44 c 6.44,-0.58 11.37,-5.98 11.37,-12.44 v -3.62 l 81.19,42.58 c 2.14,1.12 4.55,1.6 6.95,1.38 l 157.72,-14.43 c 6.43,-0.59 11.36,-5.98 11.36,-12.45 v -153.85 c 0,0 44.76,105.81 44.76,105.81 1.13,2.67 3.15,4.86 5.71,6.2 l 91.7,48.1 c 2.13,1.12 4.53,1.6 6.93,1.38 l 149.47,-13.47 c 6.44,-0.58 11.37,-5.98 11.37,-12.44 v -732.1 c 0,-4.65 -2.57,-8.92 -6.69,-11.07 l -91.7,-48.1 c -2.15,-1.13 -4.59,-1.61 -7.01,-1.38 l -159.55,15.39 c -6.41,0.62 -11.3,6.01 -11.3,12.45 v 147.49 c 0,0 -43.92,-99.62 -43.92,-99.62 -1.14,-2.59 -3.13,-4.72 -5.63,-6.03 l -91.7,-48.1 c -2.13,-1.12 -4.54,-1.6 -6.94,-1.38 l -148.55,13.47 c -6.44,0.58 -11.37,5.98 -11.37,12.45 z m 3045.9,534.16 c 31.18,-14.11 54.41,-37.04 69.69,-68.79 15.29,-31.75 22.93,-74.88 22.93,-129.39 0,-67.98 -9.17,-116.73 -27.51,-146.23 -2.45,-0.64 -4.89,-0.96 -7.34,-0.96 h -7.33 c -5.51,0 -10.85,0.16 -16.05,0.48 -5.2,0.32 -10.55,0.8 -16.05,1.44 l -18.34,0.97 z m -2042.13,-231.85 c 12.22,-8.98 21.7,-20.2 28.42,-33.67 6.73,-13.47 10.09,-31.11 10.09,-52.91 0,-13.47 -0.92,-24.05 -2.75,-31.75 l -35.76,2.89 z m 1019.69,-14.43 c 21.39,-16.04 32.09,-42.97 32.09,-80.81 0,-4.49 -0.15,-8.66 -0.46,-12.51 -0.3,-3.85 -0.76,-7.69 -1.37,-11.54 l -30.26,2.88 z m -2897.43,-716.43 c -39.01,24.87 -82.29,43.57 -128.49,54.76 h -201.42 c -46.23,-11.19 -89.52,-29.9 -128.51,-54.76 z m 131.08,-130.94 c -12.38,19.37 -26.28,37.68 -41.52,54.75 h -637.53 c -15.24,-17.08 -29.14,-35.39 -41.51,-54.75 z m 55.46,-130.95 c -4.44,18.76 -10.12,37.05 -16.93,54.75 h -797.62 c -6.83,-17.72 -12.5,-36 -16.94,-54.75 z m -842.37,-76.2 c -0.44,-8.47 -0.63,-17 -0.56,-25.58 1.76,-235.77 194.6,-425.76 430.37,-424 235.78,1.76 425.76,194.61 424,430.38 -0.04,6.44 -0.23,12.84 -0.56,19.2 z m 1646.06,-250.38 c 11.03,0 15.94,2.7 19.59,16.17 5.47,20.16 -1.34,26.6 -12.36,26.6 -11.03,0 -19.66,-4.28 -19.66,-18.26 0,-13.99 1.4,-24.51 12.43,-24.51 z m 1505.19,-180.03 c 10.23,0 17.21,8.8 17.21,22.57 0,13.77 -4.13,21.03 -14.36,21.03 -10.23,0 -16.73,-6.75 -16.73,-20.52 0,-13.77 3.64,-23.08 13.88,-23.08 z m -890.51,-345.97 c 19.05,-4.52 35.19,10.7 32.71,39.34 -2.08,24.11 -2.02,48.61 -18.2,53.48 -30.66,9.22 -46.6,-14.53 -46.6,-38.73 0,-24.2 15.7,-50.2 32.09,-54.09 z m 1234.7,-403.05 c 41.98,-2.74 44.37,29.96 41.83,61.06 -2.06,25.29 -12.09,48.48 -35.61,48.48 -23.52,0 -43.84,-0.99 -44.73,-25.22 -1.73,-46.85 15.03,-82.79 38.51,-84.32 z m -3875.2,-423.8 c 14.14,52.68 42.04,119.82 61.26,146.8 9.94,13.67 29.52,32.88 42.39,41.86 -2.68,-18.26 -13.6,-44.81 -21.09,-59.22 -18.57,-35.37 -49.33,-82.22 -82.56,-129.44 z m -438.698,-808.73 c -0.967,-2.35 -1.702,-4.91 -2.215,-7.83 -3.601,-21.84 -3.57,-64.94 -2.414,-88.18 0.846,-15.16 4.129,-55.21 4.708,-62.68 1.111,-14.32 -9.612,-26.85 -23.93002,-27.96 -14.319,-1.11 -26.846,9.62 -27.957,23.93 -0.59,7.62 -3.933,48.51 -4.786,63.87 -0.003,0.05 -0.006,0.1 -0.008,0.14 -1.309,26.19 -1.016,74.9 3.05,99.43 0.01,0.06 0.02,0.12 0.03,0.18 2.939,16.99 8.998,29.02 18.364,40.68 6.868,8.55 18.362,11.88 28.73702,8.32 l 4.358,-1.5 c 13.584,-4.66 20.826,-19.48 16.163,-33.06 -2.449,-7.13 -7.698,-12.52 -14.1,-15.34 z m 2029.628,-1923.59 -0.15,-0.644 c 0.01,0.029 0.07,0.245 0.15,0.644 l 0.49,2.184 c -3.7,-21.962 -19.95,-42.774 -35.64,-49.049 -0.35,-0.141 -0.71,-0.275 -1.07,-0.4 -7.62,-2.669 -20.01,-3.778 -30.89,-2.39 -9.04,1.154 -16.99,4.1 -21.96,7.375 -0.12,0.081 -0.24,0.163 -0.36,0.246 -5.28,3.608 -13.42,10.788 -19.53,18.639 -5.7,7.324 -9.53,15.357 -10.81,22.184 -7.2,38.468 -0.49,153.068 -15.08,240.751 -4.3,25.81 -10.34,49.09 -19.99,66.25 -5.3,9.44 -11.42,16.97 -19.98,19.78 -6.16,-3.92 -21.82,-14 -30.97,-20.89 8.29,-13.59 15.23,-26.12 19.78,-36.06 11.42,-11.15 21.01,-28.57 27.33,-50.22 14.13,-48.29 13.9,-119.051 1.74,-163.007 -5.8,-20.943 -14.91,-36.544 -24.75,-44.937 -11.64,-9.938 -24.95,-13.159 -39.6,-9.022 -12.06,3.409 -35.38,17.058 -46.92,40.246 -0.05,0.09 -0.09,0.179 -0.14,0.269 -16.82,34.796 -27.61,111.107 -26.05,143.981 0.01,0.05 0.01,0.11 0.01,0.17 0.97,17.79 4.34,44.52 9.74,69.09 0.02,0.08 0.04,0.15 0.05,0.22 3.28,14.33 10.29,33.11 17.69,49.23 -16.6,24.85 -35.47,49.95 -49.61,65.03 -1.55,-10.25 -3.13,-22.4 -3.93,-33.22 -4.05,-54.58 -8.29,-124.32 -28.19,-164.468 -9.2,-18.548 -21.69,-31.837 -36.92,-38.907 -10.07,-4.678 -21.62,-6.961 -34.87,-5.562 12.93,-46.911 25.14,-96.855 25.55,-139.475 0.01,-0.434 0,-0.869 -0.02,-1.303 -1.41,-34.825 -9.69,-54.439 -17.86,-63.571 -7.54,-8.439 -16.3,-12.184 -25.38,-12.886 -10,-0.771 -21.78,2.626 -33.18,12.552 -12.01,10.46 -25.42,30.482 -36.1,55.621 -14.72,34.653 -24.81,79.114 -21.97,117.002 1.53,20.358 4.34,138.737 9.17,244.207 -4.19,20.22 -7.91,36.65 -10.26,45.55 -10.44,39.18 -45.88,106.23 -59.74,161.19 -3.62,14.4 -9.38,26.65 -16,35.34 -0.2,-1.57 -0.32,-3.17 -0.35,-4.71 -0.55,-29.47 -4.8,-208.1 -7.34,-352.32 0.61,-5.23 1.17,-10.37 1.69,-15.38 24.71,-27.53 52.14,-57.757 60.3,-66.717 9.67,-10.62 8.89,-27.092 -1.73,-36.759 -10.62,-9.668 -27.09,-8.894 -36.76,1.727 -3.52,3.874 -10.61,11.675 -19.51,21.509 -1.54,-29.859 -4.57,-61.465 -5.71,-70.336 -0.92,-7.228 -3.1,-11.07 -3.43,-11.673 -5.75,-10.34 -17.75,-15.505 -29.21,-12.571 -11.46,2.934 -19.49,13.228 -19.56,25.057 -0.16,27.659 0.4,75.964 1.32,132.403 -11,12.33 -20.29,22.87 -25.42,28.93 0,0 0,0 -0.01,0.01 -21.07,24.93 -57.47,73.15 -71.54,98.6 -6.11,11.05 -8.53,20.11 -8.74,24.99 -0.62,14.35 10.52,26.5 24.87,27.13 13.25,0.57 24.63,-8.89 26.78,-21.65 1.33,-1.98 24.97,-37.2 45.97,-66.16 -2.81,17.23 -5.72,32.68 -8.34,43.9 -8.63,36.14 -30.49,103.33 -46,141.54 -0.42,-0.89 -0.85,-1.76 -1.28,-2.63 -10.48,-20.94 -24.82,-36.4 -42.32,-45.14 -6.32,-3.16 -13.66,-3.61 -20.32,-1.25 -6.66,2.37 -12.08,7.34 -15,13.77 -2.69,5.93 -4.27,18.45 -2.03,33.97 l 0.25,1.63 c -1.47,0.34 -3.01,0.79 -4.62,1.39 -2.17,0.79 -7.76,2.99 -9.84,3.81 -9.8,-1.92 -19.76,0.05 -29.42,6.72 -7.98,5.51 -16.52,15.71 -23.84,30.13 -20.65,40.67 -36.09,121.32 -32.03,173.19 1.79,22.96 2.51,71.51 14.43,103.85 1.31,3.52 2.74,6.88 4.31,10.07 -4.97,12.46 -12.36,29.9 -20.17,45.41 -1.68,3.34 -3.3,6.6 -4.89,9.66 -4.09,-17.95 -8.22,-42.13 -11.47,-69.66 -9.38,-84.67 -23.28,-153.89 -39.5,-185.18 -3.39,-6.53 -9.39,-11.33 -16.52,-13.19 l -6.96,-1.82 c -8.4,-2.2 -17.34,-0.07 -23.84,5.69 -5.82,5.16 -17.5,22.25 -28.31,57.52 -0.02,0.05 -0.03,0.11 -0.05,0.16 -4.75,15.85 -10.38,38.56 -15.47,63.14 -5.81,-12.07 -14.73,-20.05 -30.03,-27.57 -7.32,-3.6 -15.91,-3.55 -23.19,0.12 -7.29,3.68 -12.43,10.55 -13.89,18.58 -1.56,8.59 -2.46,14.27 -2.82,17.11 0,0.03 -0.01,0.06 -0.01,0.1 -3.59,29.62 10.9,273.82 5.44,360.58 -6.2,-18.61 -12.56,-41.95 -17.56,-69.86 -0.01,-12.21 -0.12,-24.85 -0.29,-38.01 0,-0.13 0,-0.25 0,-0.38 -2.06,-74.88 -8.51,-122.92 -13.78,-139.91 -3.81,-12.25 -15.97,-19.9 -28.66,-18.02 -12.68,1.87 -22.12,12.71 -22.22,25.53 -0.08,10.84 0.28,24.99 0.97,40.69 -9.73,-1.55 -19.08,-1.52 -26.39,0.28 -0.24,0.06 -0.48,0.13 -0.72,0.19 -20.82,5.78 -49.6,33.93 -60.01,53.78 -0.05,0.11 -0.1,0.21 -0.16,0.31 -14.74,29.08 -32.68,117.75 -32.54,162.13 0,0.05 0,0.11 0,0.16 0.22,23.51 6.17,64.38 11.94,81.69 0.04,0.13 0.08,0.25 0.13,0.37 4.64,13.27 16.49,32.85 30.25,47.86 10.89,11.88 23.18,20.72 33.76,24.24 0.2,0.07 0.4,0.13 0.6,0.19 14.38,4.41 41.53,1.54 53.28,-4.97 0.39,-0.21 0.77,-0.44 1.14,-0.67 6.9,-4.29 14.58,-12.39 21.23,-23.48 11.16,-18.61 20.76,-46.77 23.58,-66.88 l 0.03,-0.22 c 3.64,5.99 6.77,10.15 9.11,12.85 8.33,9.65 16.93,12.17 22.68,12.6 l -1.02,0.05 c 7.92,0.75 18.71,-1.22 27.25,-13.49 5.79,-8.31 13.71,-33.06 18.06,-68.65 0.01,-0.1 0.02,-0.2 0.03,-0.29 3.82,-34.36 2.18,-112.51 -0.21,-188.64 6.95,42.79 13.12,81.24 16.67,99.21 l 0.46,2.48 c 0.24,1.07 0.47,2.15 0.7,3.22 l 0.32,1.24 0.07,0.31 h 0.01 l 0.27,1.02 c 3.94,13.61 18.04,21.56 31.72,17.9 13.69,-3.67 21.92,-17.61 18.54,-31.36 -0.76,-3.09 -1.77,-8.12 -2.98,-14.7 -6.42,-40.63 -14.92,-142.88 -14.23,-172.56 1.06,-38.91 13.72,-101.5 24.05,-140.05 6.78,30.94 12.48,70.43 17.36,114.43 0.01,0.06 0.01,0.12 0.02,0.18 6.02,51.08 15.29,91.76 21.9,107.42 5.51,13.05 13.76,18.41 18.08,20.22 0.45,0.19 0.9,0.37 1.36,0.53 4.86,1.73 13.5,2.63 22.1,1.22 8.04,-1.33 15.75,-4.57 20.01,-7.66 0.28,-0.2 0.56,-0.41 0.84,-0.63 6.92,-5.45 15.63,-16.84 23.74,-31.4 7.74,-13.89 15.55,-30.91 21.86,-45.73 17.61,3.49 42.59,-1.71 74.27,-29.06 17.57,-15.16 33.6,-42.98 45.11,-77.96 15.52,-47.11 23.81,-107.63 21.31,-161.73 -0.4,-8.59 -1.08,-17.03 -2.06,-25.23 5.23,-6.05 10.18,-12.64 14.37,-19.27 0.06,-0.1 0.12,-0.2 0.18,-0.3 7.52,-12.28 21.09,-46.92 34.09,-84.49 1.53,70.54 2.82,126.5 3.11,141.89 0.92,49.03 25.89,63.97 45.68,64.06 9.8,0.04 21.02,-3.55 31.88,-12.03 15.93,-12.45 32.92,-37.71 41.29,-70.92 6.46,-25.65 17.67,-53.94 28.82,-80.77 1.34,11.6 2.76,20.73 4.27,26.62 3.43,13.37 16.7,21.74 30.25,19.06 13.54,-2.67 22.64,-15.46 20.72,-29.13 -7.32,-52.3 -5.04,-183.77 12.79,-264.16 3.46,-15.63 7.44,-29.18 12.27,-39.39 1.75,-3.72 5.21,-8.51 6.03,-9.64 6.57,-2.48 11.95,-3.481 16.51,-1.7 8.82,3.46 13.03,13.8 17.29,25.8 17.49,49.22 16.09,129.27 22.32,174.63 2.65,19.26 7.31,33.78 12.72,41.72 6.08,8.92 13.76,13.54 21.84,15.3 10.21,2.23 26.97,-0.13 44.57,-21.54 14.06,-12.85 35.04,-39.28 54.86,-67.54 12.15,9.32 28.32,20.27 38.65,25.24 9.3,4.48 17.12,5.19 21.31,4.77 38.69,-3.94 66.12,-36.16 81.06,-86.09 26.33,-87.99 16.65,-234.873 24.54,-282.135 1.1,-1.286 4.84,-5.616 7.39,-7.989 l 2.62,-0.362 c 1.55,-0.147 1.44,-0.143 3.08,-0.217 l 0.59,0.021 c 1.05,1.591 3.22,5.09 4.1,7.94 l 0.01,1.035 c 0.23,22.302 1.23,134.469 7.06,181.427 0.01,0.04 0.01,0.09 0.02,0.13 6.28,48.64 6.12,79.66 6.46,81.01 2.94,11.77 13.63,19.95 25.76,19.7 12.13,-0.24 22.49,-8.83 24.96,-20.7 l 55.97,-268.628 c 3.51,2.916 7.62,5.692 11.72,7.769 6.69,3.385 13.35,4.891 17.67,5.026 0.38,0.012 0.77,0.015 1.15,0.01 6.01,-0.078 14.01,-1.98 22.72,-6.419 12.08,-6.157 27.33,-17.913 39.3,-29.614 0.07,-0.069 0.14,-0.139 0.21,-0.209 38.5,-38.495 123.02,-163.855 148.42,-202.881 0.04,-0.069 0.09,-0.138 0.13,-0.208 12.29,-19.286 21.99,-36.274 24.77,-41.503 6.75,-12.676 1.94,-28.448 -10.74,-35.198 -12.67,-6.75 -28.45,-1.938 -35.2,10.738 -2.54,4.78 -11.43,20.268 -22.65,37.89 -24.36,37.422 -104.53,157.272 -141.4,194.23 -5.85,5.695 -15.53,12.583 -22.01,16.977 -4.2,-14.324 -12.8,-43.782 -16.16,-56.318 -3.12,-11.639 -13.83,-19.612 -25.87,-19.271 -12.05,0.342 -22.28,8.907 -24.74,20.703 l -34.62,166.148 c -0.6,-28.289 -0.8,-52.344 -0.89,-61.327 -0.05,-5.293 -0.63,-8.727 -0.9,-10.075 z m -1200.56,934.03 c -1.28,-0.47 -2.61,-0.92 -3.94,-1.35 -4.59,-1.51 -9.39,-3.18 -12.95,-2.48 -3.08,0.99 -6.26,3.69 -9.57,6.53 -7.35,6.3 -14.33,14.47 -17.8,21.01 -12.55,24.96 -26.93,100.38 -26.83,138.19 0.19,18.83 4.6,51.42 9.22,65.45 2.98,8.36 10.82,20.3 19.42,29.68 3.96,4.32 7.69,8.48 11.52,9.92 2.78,0.68 8.71,-0.29 11.6,-0.84 1.57,-2.18 5.05,-7.18 6.98,-10.99 6.5,-12.86 11.86,-29.4 13.6,-41.73 5.67,-40.62 7.36,-83.07 7.38,-133.26 l -0.18,-1.06 c -3.08,-18.25 -6.12,-48.1 -8.45,-79.07 z m 88.03,194.07 -1.23,-0.07 -0.08,-0.01 z m -3.16,-0.06 h -0.11 l 1.69,-0.02 z m 278.17,-344.57 c 1.73,0.05 3.73,-1.21 6.3,-2.35 6.58,-2.92 13.95,-8.03 22.51,-15.42 12.16,-10.49 21.71,-30.62 29.68,-54.84 13.34,-40.51 20.56,-92.23 18.91,-139.04 -1.02,0.02 -2,-0.02 -2.92,-0.1 -5.99,-0.54 -11.62,-3.13 -15.91,-7.35 -5.73,-5.61 -10.95,-13.28 -15.59,-30.24 -0.02,-0.05 -0.03,-0.09 -0.04,-0.14 -0.88,-3.27 -2.1,-7.74 -3.48,-12.95 -0.75,0.08 -1.5,0.13 -2.25,0.15 -5.48,1.75 -15.85,4.69 -24.9,5.21 -2.4,3.69 -7.22,11.43 -9.97,18.09 -7.96,19.33 -14.53,45.28 -18.58,71.34 -3.58,23.07 -5.21,46.25 -3.75,64.96 1.28,16.4 1.47,47.47 6.99,74 1.47,7.04 3.28,13.72 5.81,19.43 3.1,2.52 5.55,5.7 7.19,9.25 z m 17.88,-270.13 0.1,0.1 -0.28,-0.29 z m -1.18,-1.29 0.21,0.22 -0.33,-0.37 z m 607.79,-457.341 c -3.11,2.324 -6.37,5.764 -8.55,10.069 -13.81,28.745 -22.11,91.484 -20.84,118.622 0.87,15.61 3.86,38.99 8.58,60.53 l 0.67,2.75 c 0.51,-1.15 0.98,-2.27 1.4,-3.33 1.77,-4.49 4.77,-8.4 8.64,-11.28 10.13,-7.56 14.82,-25.47 18.63,-45.79 7.17,-38.176 6.04,-85.763 -2.6,-117.012 -1.38,-4.98 -3.98,-10.673 -5.93,-14.559 z m 1347.79,-16.465 c -29.83,12.808 -61.68,28.555 -81.57,42.58 -47.44,33.453 -87.81,75.154 -108.87,113.856 -8.85,16.26 -14.69,31.52 -14.09,44.78 4.98,0.02 12.11,-0.2 18,-1.3 52.9,-9.93 140.97,-57.63 175.7,-163.463 3.47,-10.557 7.13,-22.988 10.83,-36.453 z m -1582.91,-62.194 c -3.94,6.457 -7.75,14.242 -11.37,22.753 -11.69,27.503 -20.23,62.689 -17.97,92.759 0.47,6.271 1.03,22.052 1.72,43.944 13.94,-48.815 28.27,-102.195 28.84,-147.306 -0.19,-4.105 -0.65,-8.268 -1.22,-12.15 z m 1306.45,-184.28 c -8.66,4.035 -33.22,15.915 -44.59,25.777 -17.34,15.446 -33.91,34.237 -44.13,48.507 -10.39,14.73 -22.03,36.09 -29.94,58.963 -4.28,12.935 -6.08,30.271 -5.44,44.376 0.17,3.963 1.11,9.282 1.66,12.123 l 1.89,1.046 c 2.65,-0.967 7.46,-2.817 10.79,-4.579 12.29,-6.496 26,-16.372 34.46,-24.937 12.05,-12.516 27.28,-32.032 42.85,-54.248 2.5,-6.001 5.11,-11.964 7.8,-17.811 0.01,-0.02 0.02,-0.041 0.03,-0.061 8.44,-18.183 22.71,-45.261 37.21,-70.83 -2.43,-2.147 -4.49,-4.792 -6.02,-7.874 -1.86,-3.753 -4.76,-7.969 -6.57,-10.452 z"
   style="fill:#ffffff;fill-opacity:1" />
    <defs
   id="defs17">
        <linearGradient
   id="_Linear1"
   x1="0"
   y1="0"
   x2="1"
   y2="0"
   gradientUnits="userSpaceOnUse"
   gradientTransform="matrix(3087.1,-2530.35,2530.35,3087.1,2046.57,5153.73)"><stop
     offset="0"
     style="stop-color:rgb(255,242,0);stop-opacity:1"
     id="stop10" /><stop
     offset="0.43"
     style="stop-color:rgb(254,201,5);stop-opacity:1"
     id="stop12" /><stop
     offset="1"
     style="stop-color:rgb(253,148,0);stop-opacity:1"
     id="stop14" /></linearGradient>
    </defs>
</svg>
